<?xml version="1.0" encoding="utf-8"?>
<svg version="1.1" xmlns:xlink="http://www.w3.org/1999/xlink" width="16px" height="6px" xmlns="http://www.w3.org/2000/svg">
  <g transform="matrix(1 0 0 1 -364 -383 )">
    <path d="M 13.71428571875 0.571428578124999  C 13.0831031487476 0.571428578124999  12.571428578125 1.08310314874759  12.571428578125 1.71428571875  L 12.571428578125 2.571428578125  C 12.571428578125 2.72922421846824  12.4435099372182 2.857142859375  12.285714296875 2.857142859375  L 3.71428571875 2.857142859375  C 3.55649006278176 2.857142859375  3.428571421875 2.72922421846824  3.428571421875 2.571428578125  L 3.428571421875 1.71428571875  C 3.428571421875 1.08310314874759  2.91689685125241 0.571428578124999  2.28571428125 0.571428578124999  L 1.142857140625 0.571428578124999  C 0.511674570622586 0.571428578124999  0 1.08310314874759  0 1.71428571875  L 0 4.28571428125  C 0 5.23248814056835  0.767511859431654 6  1.71428571875 6  L 14.28571428125 6  C 15.2324881405683 6  16 5.23248814056835  16 4.28571428125  L 16 1.71428571875  C 16 1.08310314874759  15.4883254293774 0.571428578124999  14.857142859375 0.571428578124999  L 13.71428571875 0.571428578124999  Z " fill-rule="nonzero" fill="#ffffff" stroke="none" transform="matrix(1 0 0 1 364 383 )" />
  </g>
</svg>