<?xml version="1.0" encoding="utf-8"?>
<svg version="1.1" xmlns:xlink="http://www.w3.org/1999/xlink" width="10px" height="12px" xmlns="http://www.w3.org/2000/svg">
  <g transform="matrix(1 0 0 1 -1721 -513 )">
    <path d="M 7.28571428125 5.402857140625  C 7.12791864090676 5.402857140625  7 5.53077578153176  7 5.688571421875  L 7 10.068571421875  C 7 10.6997540075024  6.48832542937741 11.211428578125  5.857142859375 11.211428578125  L 4.142857140625 11.211428578125  C 3.51167457062258 11.211428578125  3 10.6997540075024  3 10.0685714375  L 3 5.688571421875  C 3 5.53077578153176  2.87208135909324 5.402857140625  2.71428571875 5.402857140625  L 1.377142859375 5.402857140625  C 1.0624856438669 5.4015433628709  0.80810012709557 5.14609350143182  0.80810012709557 4.8314335432495  C 0.80810012709557 4.69651896521395  0.855836064435373 4.5659555192025  0.942857140624999 4.462857140625  L 4.56571428125 0.2  C 4.67419030642179 0.0769997514979289  4.83028537810661 0.00653590374276945  4.9942857109375 0.00653590374276945  C 5.15828604376839 0.00653590374276945  5.31438111545321 0.0769997514979287  5.422857140625 0.2  L 9.057142859375 4.462857140625  C 9.14416393556463 4.5659555192025  9.19189987290443 4.69651896521395  9.19189987290443 4.8314335432495  C 9.19189987290443 5.14609350143182  8.9375143561331 5.4015433628709  8.622857140625 5.402857140625  L 7.28571428125 5.402857140625  Z " fill-rule="nonzero" fill="#07815e" stroke="none" transform="matrix(1 0 0 1 1721 513 )" />
  </g>
</svg>