<?xml version="1.0" encoding="utf-8"?>
<svg version="1.1" xmlns:xlink="http://www.w3.org/1999/xlink" width="109px" height="35px" xmlns="http://www.w3.org/2000/svg">
  <defs>
    <mask fill="white" id="clip165">
      <path d="M 0 30  L 0 5  C 0 2.20000000000005  2.20000000000005 0  5 0  L 104 0  C 106.8 0  109 2.20000000000005  109 5  L 109 18.5245901639344  L 109 30  C 109 32.8  106.8 35  104 35  L 5 35  C 2.20000000000005 35  0 32.8  0 30  Z " fill-rule="evenodd" />
    </mask>
  </defs>
  <g transform="matrix(1 0 0 1 -1070 -750 )">
    <path d="M 0 30  L 0 5  C 0 2.20000000000005  2.20000000000005 0  5 0  L 104 0  C 106.8 0  109 2.20000000000005  109 5  L 109 18.5245901639344  L 109 30  C 109 32.8  106.8 35  104 35  L 5 35  C 2.20000000000005 35  0 32.8  0 30  Z " fill-rule="nonzero" fill="#f0f7ff" stroke="none" transform="matrix(1 0 0 1 1070 750 )" />
    <path d="M 0 30  L 0 5  C 0 2.20000000000005  2.20000000000005 0  5 0  L 104 0  C 106.8 0  109 2.20000000000005  109 5  L 109 18.5245901639344  L 109 30  C 109 32.8  106.8 35  104 35  L 5 35  C 2.20000000000005 35  0 32.8  0 30  Z " stroke-width="2" stroke="#7abbff" fill="none" transform="matrix(1 0 0 1 1070 750 )" mask="url(#clip165)" />
  </g>
</svg>