<?xml version="1.0" encoding="utf-8"?>
<svg version="1.1" xmlns:xlink="http://www.w3.org/1999/xlink" width="15px" height="15px" xmlns="http://www.w3.org/2000/svg">
  <g transform="matrix(1 0 0 1 -1740 -577 )">
    <path d="M 9.8640966796875 9.3852685546875  C 10.0747265625 9.5046533203125  10.3402294921875 9.42615234375  10.4566845703125 9.2103955078125  C 10.5730810546875 8.9947412109375  10.4963818359375 8.723232421875  10.285458984375 8.604052734375  C 9.99074398636756 8.43761445094153  9.68279428554755 8.29578532408664  9.36474609375 8.180009765625  C 10.6810546875 7.450166015625  11.5750048828125 6.0242138671875  11.5750048828125 4.38451171875  C 11.5750048828125 2.00197265625  9.68759765625 0.0704443359375004  7.359404296875 0.0704443359375004  C 5.0312548828125 0.0704443359375004  3.1438623046875 2.0019873046875  3.1438623046875 4.38451171875  C 3.1438623046875 5.995576171875  4.006962890625 7.400126953125  5.285625 8.1409716796875  C 2.74447265625 9.01728515625  0.90462890625 11.529140625  0.90462890625 14.4832763671875  C 0.90462890625 14.7296923828125  1.0998779296875 14.9295849609375  1.3407275390625 14.9295849609375  C 1.5816796875 14.9295849609375  1.776826171875 14.7296923828125  1.776826171875 14.4832763671875  C 1.776826171875 11.295087890625  4.2408984375 8.7013916015625  7.2700048828125 8.7013916015625  C 8.1751611328125 8.7013916015625  9.0719677734375 8.937890625  9.8640966796875 9.3852685546875  Z M 7.359404296875 7.8059619140625  C 5.5158984375 7.8059619140625  4.0160595703125 6.2710693359375  4.0160595703125 4.3844970703125  C 4.0160595703125 2.497822265625  5.5158984375 0.962988281250001  7.359404296875 0.962988281250001  C 9.20296875 0.962988281250001  10.70279296875 2.4978369140625  10.70279296875 4.3844970703125  C 10.70279296875 6.2710693359375  9.2029541015625 7.8059619140625  7.359404296875 7.8059619140625  Z M 13.6691162109375 13.240986328125  C 13.9122802734375 13.24025390625  14.103134765625 13.0226953125  14.0951220703125 12.7551416015625  C 14.0872119140625 12.487587890625  13.88361328125 12.27134765625  13.640419921875 12.272080078125  L 9.6248583984375 12.2877978515625  C 9.38162109375 12.2885302734375  9.1908544921875 12.5061474609375  9.1987646484375 12.773701171875  C 9.206572265625 13.0413134765625  9.4102734375 13.2576416015625  9.6535107421875 13.2567626953125  L 13.6691162109375 13.240986328125  Z " fill-rule="nonzero" fill="#333333" stroke="none" transform="matrix(1 0 0 1 1740 577 )" />
  </g>
</svg>