<?xml version="1.0" encoding="utf-8"?>
<svg version="1.1" xmlns:xlink="http://www.w3.org/1999/xlink" width="18px" height="11px" xmlns="http://www.w3.org/2000/svg">
  <g transform="matrix(1 0 0 1 -1612 -579 )">
    <path d="M 17.4985714335937 6.39908163462612  C 17.8649455538034 5.83425684525723  17.8649455538034 5.16574315474277  17.4985714335937 4.60091836537388  C 17.0542562144061 3.9229957386321  16.4868974510209 3.29941153578233  15.8142857167969 2.74971938183594  C 14.0247761915787 1.30371964091445  11.5669595714048 0.487920855894069  9 0.487920855894069  C 6.43304042859515 0.487920855894069  3.97522380842131 1.30371964091445  2.18571428320312 2.74971938183594  C 1.51310254897912 3.29941153578233  0.945743785593923 3.9229957386321  0.50142856640625 4.60091836537388  C 0.135054446196593 5.16574315474277  0.135054446196593 5.83425684525723  0.50142856640625 6.39908163462612  C 0.945743785593923 7.0770042613679  1.51310254897912 7.70058846421767  2.18571428320312 8.25028061816406  C 3.97522380842131 9.69628035908555  6.43304042859515 10.5120791441059  9 10.5120791441059  C 11.5669595714048 10.5120791441059  14.0247761915787 9.69628035908555  15.8142857167969 8.25028061816406  C 16.4868974510209 7.70058846421767  17.0542562144061 7.0770042613679  17.4985714335937 6.39908163462612  Z M 11.8928571503906 5.5  C 11.8928571503906 6.75532069739977  10.5976808875997 7.77295918959263  9 7.77295918959263  C 7.40231911240029 7.77295918959263  6.10714284960937 6.75532069739977  6.10714284960937 5.5  C 6.10714284960937 4.24467930260023  7.40231911240029 3.22704081040737  9 3.22704081040737  C 10.5976808875997 3.22704081040737  11.8928571503906 4.24467930260023  11.8928571503906 5.5  Z " fill-rule="nonzero" fill="#0ff265" stroke="none" transform="matrix(1 0 0 1 1612 579 )" />
  </g>
</svg>