<?xml version="1.0" encoding="utf-8"?>
<svg version="1.1" xmlns:xlink="http://www.w3.org/1999/xlink" width="15px" height="15px" xmlns="http://www.w3.org/2000/svg">
  <g transform="matrix(1 0 0 1 -848 -2082 )">
    <path d="M 15 7.5  C 15 11.642135623731  11.642135623731 15  7.5 15  C 3.35786437626905 15  0 11.642135623731  0 7.5  C 0 3.35786437626905  3.35786437626905 0  7.5 0  C 11.642135623731 0  15 3.35786437626905  15 7.5  Z M 14.53125 7.5  C 14.53125 3.61674785275224  11.3832521472478 0.468750000000001  7.5 0.46875  C 3.61674785275223 0.46875  0.468749999999998 3.61674785275223  0.468749999999998 7.5  C 0.468749999999998 11.3832521472478  3.61674785275223 14.53125  7.5 14.53125  C 11.3832521472478 14.53125  14.53125 11.3832521472478  14.53125 7.5  Z M 10.3125 10.0753125  C 9.859921875 8.9925  8.946328125 8.198671875  7.734375 8.1975  L 7.734375 9.132421875  C 7.73368216411196 9.390813718887  7.52401945779624 9.59991500229777  7.26562668504728 9.59991500229777  C 7.17312144885671 9.59991500229777  7.08268425533993 9.57254448600249  7.005703125 9.52125  L 4.193203125 7.651640625  C 4.06279692104528 7.56519581201967  3.98438999423727 7.41915132459631  3.98438999423727 7.2626953125  C 3.98438999423727 7.10623930040368  4.06279692104528 6.96019481298033  4.193203125 6.87375  L 7.005703125 5.004140625  C 7.08268425533993 4.95284613899751  7.17312144885671 4.92547562270222  7.26562668504728 4.92547562270222  C 7.52401945779624 4.92547562270222  7.73368216411196 5.13457690611299  7.734375 5.39296875  L 7.734375 6.328125  C 9.28538459879547 6.32592286948232  10.544546745979 7.58141246040327  10.546875 9.132421875  C 10.5633775605744 9.46294817113011  10.4818382570031 9.79098078939746  10.3125 10.0753125  Z M 10.3171875 9.53296875  C 10.3171875 7.40625  8.671875 6.796875  7.265625 6.796875  L 7.265625 5.47125  C 7.15144795581724 5.4649650352478  7.03757155019585 5.48812770598723  6.934921875 5.538515625  L 4.734375 6.98765625  C 4.62934123372582 7.04605056104042  4.56387842300311 7.15646868090512  4.563046875 7.276640625  C 4.56357001213742 7.40433421870238  4.62785745663824 7.52332315496724  4.734375 7.59375  L 6.934921875 8.947734375  C 7.0374265798936 9.00002425798545  7.15056573795674 9.02808854240933  7.265625 9.029765625  L 7.265625 7.734375  C 9.953203125 7.734375  10.3171875 9.53296875  10.3171875 9.53296875  Z " fill-rule="nonzero" fill="#333333" stroke="none" transform="matrix(1 0 0 1 848 2082 )" />
  </g>
</svg>