<?xml version="1.0" encoding="utf-8"?>
<svg version="1.1" xmlns:xlink="http://www.w3.org/1999/xlink" width="40px" height="50px" xmlns="http://www.w3.org/2000/svg">
  <defs>
    <mask fill="white" id="clip153">
      <path d="M 30 14  C 30 18.3483059105532  28.2983012137423 21.9403012494363  25.8815045599291 25.4337199624508  C 22.7401010287813 29.9744599582864  18.3909457911259 34.3484236814568  15 40  C 9 30  0 24  0 14  C 0 9.56842321796483  2.17886902090311 2.52220361084585  10.2503860489132 0.536484416797805  C 11.6500302950624 0.192158202038968  13.2267524305794 0  15 0  C 27 0  30 8.80000000000001  30 14  Z " fill-rule="evenodd" />
    </mask>
    <filter x="376px" y="1049px" width="40px" height="50px" filterUnits="userSpaceOnUse" id="filter154">
      <feOffset dx="1" dy="1" in="SourceAlpha" result="shadowOffsetInner" />
      <feGaussianBlur stdDeviation="2.5" in="shadowOffsetInner" result="shadowGaussian" />
      <feComposite in2="shadowGaussian" operator="atop" in="SourceAlpha" result="shadowComposite" />
      <feColorMatrix type="matrix" values="0 0 0 0 0  0 0 0 0 0  0 0 0 0 0  0 0 0 0.698039215686274 0  " in="shadowComposite" />
    </filter>
    <g id="widget155">
      <path d="M 30 14  C 30 18.3483059105532  28.2983012137423 21.9403012494363  25.8815045599291 25.4337199624508  C 22.7401010287813 29.9744599582864  18.3909457911259 34.3484236814568  15 40  C 9 30  0 24  0 14  C 0 9.56842321796483  2.17886902090311 2.52220361084585  10.2503860489132 0.536484416797805  C 11.6500302950624 0.192158202038968  13.2267524305794 0  15 0  C 27 0  30 8.80000000000001  30 14  Z " fill-rule="nonzero" fill="#009dd9" stroke="none" transform="matrix(1 0 0 1 380 1053 )" />
      <path d="M 30 14  C 30 18.3483059105532  28.2983012137423 21.9403012494363  25.8815045599291 25.4337199624508  C 22.7401010287813 29.9744599582864  18.3909457911259 34.3484236814568  15 40  C 9 30  0 24  0 14  C 0 9.56842321796483  2.17886902090311 2.52220361084585  10.2503860489132 0.536484416797805  C 11.6500302950624 0.192158202038968  13.2267524305794 0  15 0  C 27 0  30 8.80000000000001  30 14  Z " stroke-width="2" stroke="#ffffff" fill="none" transform="matrix(1 0 0 1 380 1053 )" mask="url(#clip153)" />
    </g>
  </defs>
  <g transform="matrix(1 0 0 1 -376 -1049 )">
    <use xlink:href="#widget155" filter="url(#filter154)" />
    <use xlink:href="#widget155" />
  </g>
</svg>