<?xml version="1.0" encoding="utf-8"?>
<svg version="1.1" xmlns:xlink="http://www.w3.org/1999/xlink" width="9px" height="10px" xmlns="http://www.w3.org/2000/svg">
  <g transform="matrix(1 0 0 1 -192 -369 )">
    <path d="M 196.5 370  C 198.46 370  200 371.76  200 374  C 200 376.24  198.46 378  196.5 378  C 194.54 378  193 376.24  193 374  C 193 371.76  194.54 370  196.5 370  Z " fill-rule="nonzero" fill="#1890ff" stroke="none" />
    <path d="M 196.5 370  C 198.46 370  200 371.76  200 374  C 200 376.24  198.46 378  196.5 378  C 194.54 378  193 376.24  193 374  C 193 371.76  194.54 370  196.5 370  Z " stroke-width="2" stroke="#ffffff" fill="none" />
  </g>
</svg>