<?xml version="1.0" encoding="utf-8"?>
<svg version="1.1" xmlns:xlink="http://www.w3.org/1999/xlink" width="40px" height="50px" xmlns="http://www.w3.org/2000/svg">
  <defs>
    <mask fill="white" id="clip168">
      <path d="M 30 14  C 30 24  21 30  15 40  C 9 30  0 24  0 14  C 0 8.79999999999995  3 0  15 0  C 17.4046974547526 0  19.4479842939493 0.353379268543449  21.1781429168873 0.960354180416516  C 28.081878522191 3.38232535408144  30 9.84203556372609  30 14  Z " fill-rule="evenodd" />
    </mask>
    <filter x="337px" y="525px" width="40px" height="50px" filterUnits="userSpaceOnUse" id="filter169">
      <feOffset dx="1" dy="1" in="SourceAlpha" result="shadowOffsetInner" />
      <feGaussianBlur stdDeviation="2.5" in="shadowOffsetInner" result="shadowGaussian" />
      <feComposite in2="shadowGaussian" operator="atop" in="SourceAlpha" result="shadowComposite" />
      <feColorMatrix type="matrix" values="0 0 0 0 0  0 0 0 0 0  0 0 0 0 0  0 0 0 0.698039215686274 0  " in="shadowComposite" />
    </filter>
    <g id="widget170">
      <path d="M 30 14  C 30 24  21 30  15 40  C 9 30  0 24  0 14  C 0 8.79999999999995  3 0  15 0  C 17.4046974547526 0  19.4479842939493 0.353379268543449  21.1781429168873 0.960354180416516  C 28.081878522191 3.38232535408144  30 9.84203556372609  30 14  Z " fill-rule="nonzero" fill="#009dd9" stroke="none" transform="matrix(1 0 0 1 341 529 )" />
      <path d="M 30 14  C 30 24  21 30  15 40  C 9 30  0 24  0 14  C 0 8.79999999999995  3 0  15 0  C 17.4046974547526 0  19.4479842939493 0.353379268543449  21.1781429168873 0.960354180416516  C 28.081878522191 3.38232535408144  30 9.84203556372609  30 14  Z " stroke-width="2" stroke="#ffffff" fill="none" transform="matrix(1 0 0 1 341 529 )" mask="url(#clip168)" />
    </g>
  </defs>
  <g transform="matrix(1 0 0 1 -337 -525 )">
    <use xlink:href="#widget170" filter="url(#filter169)" />
    <use xlink:href="#widget170" />
  </g>
</svg>