<?xml version="1.0" encoding="utf-8"?>
<svg version="1.1" xmlns:xlink="http://www.w3.org/1999/xlink" width="68px" height="35px" xmlns="http://www.w3.org/2000/svg">
  <g transform="matrix(1 0 0 1 -1755 -260 )">
    <path d="M 1755.5 265  A 4.5 4.5 0 0 1 1760 260.5 L 1818 260.5  A 4.5 4.5 0 0 1 1822.5 265 L 1822.5 290  A 4.5 4.5 0 0 1 1818 294.5 L 1760 294.5  A 4.5 4.5 0 0 1 1755.5 290 L 1755.5 265  Z " fill-rule="nonzero" fill="#f9f9f9" stroke="none" fill-opacity="0" />
    <path d="M 1755.5 265  A 4.5 4.5 0 0 1 1760 260.5 L 1818 260.5  A 4.5 4.5 0 0 1 1822.5 265 L 1822.5 290  A 4.5 4.5 0 0 1 1818 294.5 L 1760 294.5  A 4.5 4.5 0 0 1 1755.5 290 L 1755.5 265  Z " stroke-width="1" stroke="#e4e4e4" fill="none" />
  </g>
</svg>