<?xml version="1.0" encoding="utf-8"?>
<svg version="1.1" xmlns:xlink="http://www.w3.org/1999/xlink" width="8px" height="10px" xmlns="http://www.w3.org/2000/svg">
  <g transform="matrix(1 0 0 1 -165 -378 )">
    <path d="M 169 379  C 170.68 379  172 380.76  172 383  C 172 385.24  170.68 387  169 387  C 167.32 387  166 385.24  166 383  C 166 380.76  167.32 379  169 379  Z " fill-rule="nonzero" fill="#1890ff" stroke="none" />
    <path d="M 169 379  C 170.68 379  172 380.76  172 383  C 172 385.24  170.68 387  169 387  C 167.32 387  166 385.24  166 383  C 166 380.76  167.32 379  169 379  Z " stroke-width="2" stroke="#ffffff" fill="none" />
  </g>
</svg>