<?xml version="1.0" encoding="utf-8"?>
<svg version="1.1" xmlns:xlink="http://www.w3.org/1999/xlink" width="17px" height="22px" xmlns="http://www.w3.org/2000/svg">
  <defs>
    <filter x="695px" y="371px" width="17px" height="22px" filterUnits="userSpaceOnUse" id="filter171">
      <feOffset dx="0" dy="0" in="SourceAlpha" result="shadowOffsetInner" />
      <feGaussianBlur stdDeviation="2" in="shadowOffsetInner" result="shadowGaussian" />
      <feComposite in2="shadowGaussian" operator="atop" in="SourceAlpha" result="shadowComposite" />
      <feColorMatrix type="matrix" values="0 0 0 0 0  0 0 0 0 0  0 0 0 0 0  0 0 0 0.149019607843137 0  " in="shadowComposite" />
    </filter>
    <g id="widget172">
      <path d="M 703.5 376  C 705.46 376  707 378.64  707 382  C 707 385.36  705.46 388  703.5 388  C 701.54 388  700 385.36  700 382  C 700 378.64  701.54 376  703.5 376  Z " fill-rule="nonzero" fill="#1890ff" stroke="none" />
      <path d="M 703.5 376  C 705.46 376  707 378.64  707 382  C 707 385.36  705.46 388  703.5 388  C 701.54 388  700 385.36  700 382  C 700 378.64  701.54 376  703.5 376  Z " stroke-width="2" stroke="#ffffff" fill="none" />
    </g>
  </defs>
  <g transform="matrix(1 0 0 1 -695 -371 )">
    <use xlink:href="#widget172" filter="url(#filter171)" />
    <use xlink:href="#widget172" />
  </g>
</svg>