<?xml version="1.0" encoding="utf-8"?>
<svg version="1.1" xmlns:xlink="http://www.w3.org/1999/xlink" width="11px" height="10px" xmlns="http://www.w3.org/2000/svg">
  <g transform="matrix(1 0 0 1 -130 -534 )">
    <path d="M 135.5 534  C 138.58 534  141 536.2  141 539  C 141 541.8  138.58 544  135.5 544  C 132.42 544  130 541.8  130 539  C 130 536.2  132.42 534  135.5 534  Z " fill-rule="nonzero" fill="#ffffff" stroke="none" />
    <path d="M 135.5 534.5  C 138.3 534.5  140.5 536.48  140.5 539  C 140.5 541.52  138.3 543.5  135.5 543.5  C 132.7 543.5  130.5 541.52  130.5 539  C 130.5 536.48  132.7 534.5  135.5 534.5  Z " stroke-width="1" stroke="#cccccc" fill="none" />
  </g>
</svg>