<?xml version="1.0" encoding="utf-8"?>
<svg version="1.1" xmlns:xlink="http://www.w3.org/1999/xlink" width="13px" height="13px" xmlns="http://www.w3.org/2000/svg">
  <g transform="matrix(1 0 0 1 -1676 -273 )">
    <path d="M 12.19638671875 7.05517578125  C 12.12021484375 6.79443359375  11.97041015625 6.6201171875  11.74443359375 6.6201171875  L 11.217578125 6.6201171875  L 11.217578125 3.4912109375  C 11.217578125 3.2509765625  11.04873046875 3.05615234375  10.84052734375 3.05615234375  L 6.3958984375 3.05615234375  L 6.3958984375 2.79541015625  C 6.3958984375 2.708984375  6.32099609375 2.53466796875  6.24482421875 2.4482421875  L 4.737890625 0.70947265625  C 4.66298828125 0.70947265625  4.58681640625 0.623046875  4.5119140625 0.623046875  L 2.026171875 0.623046875  C 1.8001953125 0.623046875  1.57421875 0.8837890625  1.57421875 1.23095703125  L 1.57421875 6.70654296875  L 1.1984375 6.70654296875  C 0.990234375 6.70654296875  0.82138671875 6.9013671875  0.82138671875 7.1416015625  L 0.82138671875 11.3134765625  C 0.82138671875 11.8349609375  1.1984375 12.3564453125  1.72529296875 12.3564453125  L 7.6984375 12.3564453125  C 7.926953125 12.3564453125  8.1123046875 12.142578125  8.1123046875 11.87890625  C 8.1123046875 11.615234375  7.926953125 11.4013671875  7.6984375 11.4013671875  L 1.72529296875 11.4013671875  C 1.6427734375 11.4013671875  1.57421875 11.32373046875  1.57421875 11.22705078125  L 1.57421875 7.490234375  L 11.3673828125 7.490234375  L 11.3673828125 7.4873046875  L 11.821875 7.4873046875  C 12.02880859375 7.4873046875  12.19638671875 7.2939453125  12.19638671875 7.05517578125  Z M 4.51064453125 1.75244140625  L 4.5119140625 1.75244140625  L 5.49072265625 2.8818359375  L 4.8876953125 2.8818359375  C 4.66171875 2.79541015625  4.51064453125 2.62109375  4.51064453125 2.3603515625  L 4.51064453125 1.75244140625  Z M 5.64306640625 3.66552734375  L 5.64306640625 6.6201171875  L 2.32705078125 6.6201171875  L 2.32705078125 1.49169921875  L 3.75908203125 1.49169921875  L 3.75908203125 2.36181640625  C 3.75908203125 3.0576171875  4.2859375 3.66552734375  4.88896484375 3.66552734375  L 5.64306640625 3.66552734375  Z M 7.22490234375 3.92626953125  L 7.22490234375 6.6201171875  L 6.3958984375 6.6201171875  L 6.3958984375 3.92626953125  L 7.22490234375 3.92626953125  Z M 8.80546875 3.92626953125  L 8.80546875 6.6201171875  L 7.97646484375 6.6201171875  L 7.97646484375 3.92626953125  L 8.80546875 3.92626953125  Z M 10.4634765625 3.92626953125  L 10.4634765625 6.6201171875  L 9.63447265625 6.6201171875  L 9.63447265625 3.92626953125  L 10.4634765625 3.92626953125  Z " fill-rule="nonzero" fill="#ffffff" stroke="none" transform="matrix(1 0 0 1 1676 273 )" />
  </g>
</svg>