<?xml version="1.0" encoding="utf-8"?>
<svg version="1.1" xmlns:xlink="http://www.w3.org/1999/xlink" width="69px" height="35px" xmlns="http://www.w3.org/2000/svg">
  <g transform="matrix(1 0 0 1 -1753 -326 )">
    <path d="M 1753.5 331  A 4.5 4.5 0 0 1 1758 326.5 L 1817 326.5  A 4.5 4.5 0 0 1 1821.5 331 L 1821.5 356  A 4.5 4.5 0 0 1 1817 360.5 L 1758 360.5  A 4.5 4.5 0 0 1 1753.5 356 L 1753.5 331  Z " fill-rule="nonzero" fill="#f0f7ff" stroke="none" />
    <path d="M 1753.5 331  A 4.5 4.5 0 0 1 1758 326.5 L 1817 326.5  A 4.5 4.5 0 0 1 1821.5 331 L 1821.5 356  A 4.5 4.5 0 0 1 1817 360.5 L 1758 360.5  A 4.5 4.5 0 0 1 1753.5 356 L 1753.5 331  Z " stroke-width="1" stroke="#409eff" fill="none" />
  </g>
</svg>