<?xml version="1.0" encoding="utf-8"?>
<svg version="1.1" xmlns:xlink="http://www.w3.org/1999/xlink" width="14px" height="8px" xmlns="http://www.w3.org/2000/svg">
  <g transform="matrix(1 0 0 1 -463 -24 )">
    <path d="M 0 1.01333333333333  C 0 0.463503182390677  0.417867566824593 0.0177777777777777  0.933333333333333 0  L 13.0666666666667 0  C 13.5821324331754 0.0177777777777777  14 0.463503182390677  14 1.01333333333333  L 14 6.98666666666667  C 14 7.53649681760932  13.5821324331754 7.98222222222222  13.0666666666667 8  L 0.933333333333333 8  C 0.417867566824593 7.98222222222222  0 7.53649681760932  0 6.98666666666667  L 0 1.01333333333333  Z M 4.102 1.93422222222222  L 3.77066666666667 1.93422222222222  L 3.77066666666667 3.74613333333333  L 4.102 3.74613333333333  L 4.102 1.93422222222222  Z M 3.206 2.15324444444444  L 2.884 2.15324444444444  L 2.884 3.62168888888889  L 3.206 3.62168888888889  L 3.206 2.15324444444444  Z M 4.38666666666667 2.44693333333333  L 4.592 2.44693333333333  C 4.69466666666667 2.7008  4.872 2.93475555555556  5.12866666666667 3.14382222222222  C 4.886 3.24337777777778  4.60133333333333 3.32302222222222  4.27933333333333 3.39271111111111  L 4.43333333333333 3.69137777777778  C 4.44266666666667 3.6864  4.452 3.6864  4.466 3.6864  C 4.12066666666667 3.93528888888889  3.78933333333333 4.12942222222222  3.472 4.27875555555555  C 3.41133333333333 4.29866666666667  3.30866666666667 4.3136  3.164 4.3136  L 3.22466666666667 4.62222222222222  L 4.49866666666667 4.55253333333333  C 4.032 4.77653333333333  3.584 4.9408  3.15 5.04533333333333  C 3.052 5.04533333333333  2.954 5.04035555555555  2.85133333333333 5.03537777777778  L 2.92133333333333 5.37386666666667  C 3.40666666666667 5.36391111111111  3.934 5.344  4.51266666666667 5.31413333333333  L 4.51266666666667 5.99111111111111  C 4.51266666666667 6.10062222222222  4.46133333333333 6.16035555555556  4.36333333333333 6.16035555555556  C 4.242 6.16035555555556  4.11133333333333 6.1504  3.976 6.13546666666667  L 4.046 6.47395555555555  L 4.47533333333333 6.47395555555555  C 4.72733333333333 6.47395555555555  4.858 6.33955555555556  4.858 6.07573333333333  L 4.858 5.29422222222222  C 5.24533333333333 5.26933333333333  5.656 5.24444444444444  6.09 5.21457777777778  C 6.18333333333333 5.32408888888889  6.272 5.4336  6.35133333333333 5.54311111111111  L 6.61733333333333 5.344  C 6.426 5.09013333333333  6.15066666666667 4.79146666666667  5.78666666666667 4.448  L 5.52533333333334 4.6272  C 5.64666666666667 4.74168888888889  5.75866666666667 4.85617777777778  5.866 4.97066666666667  C 5.18466666666667 5.02044444444444  4.508 5.05528888888889  3.836 5.0752  C 4.536 4.86613333333333  5.194 4.56248888888889  5.80533333333334 4.17422222222222  L 5.52066666666667 3.97511111111111  C 5.34333333333334 4.0896  5.166 4.19413333333333  4.99333333333334 4.29368888888889  C 4.634 4.3136  4.26533333333334 4.33848888888889  3.892 4.36337777777778  C 4.2 4.21404444444444  4.49866666666667 4.03982222222222  4.78333333333334 3.83573333333333  L 4.564 3.66151111111111  C 4.89066666666667 3.58186666666667  5.18 3.47733333333333  5.42733333333334 3.35786666666667  C 5.698 3.52711111111111  6.034 3.68142222222222  6.43533333333334 3.81582222222222  L 6.61266666666667 3.51217777777778  C 6.27666666666667 3.41262222222222  5.98733333333334 3.30311111111111  5.73533333333334 3.18364444444444  C 6.05266666666667 2.97457777777778  6.272 2.72071111111111  6.38866666666667 2.42204444444444  L 6.38866666666667 2.12337777777778  L 4.38666666666667 2.12337777777778  L 4.38666666666667 2.44693333333333  Z M 6.048 2.44693333333333  C 5.91733333333333 2.66097777777778  5.70733333333333 2.84515555555556  5.42266666666667 3.00444444444444  C 5.17533333333333 2.84017777777778  4.998 2.656  4.89066666666667 2.44693333333333  L 6.048 2.44693333333333  Z M 6.678 6.11057777777778  C 6.27666666666667 5.87164444444444  5.83333333333333 5.67253333333333  5.348 5.50328888888889  L 5.18 5.77208888888889  C 5.63266666666667 5.9264  6.07133333333333 6.14044444444444  6.50066666666667 6.40924444444444  L 6.678 6.11057777777778  Z M 4.09266666666667 5.75217777777778  L 3.892 5.50826666666667  C 3.556 5.73724444444444  3.12666666666667 5.92142222222222  2.604 6.06577777777778  L 2.75333333333333 6.38933333333333  C 3.29 6.22008888888889  3.738 6.00604444444444  4.09266666666667 5.75217777777778  Z M 7.784 4.8064  L 10.7846666666667 4.8064  L 10.7846666666667 3.06417777777778  L 9.856 3.06417777777778  C 10.0053333333333 2.91484444444444  10.1593333333333 2.73066666666667  10.3086666666667 2.51662222222222  L 10.3086666666667 2.26773333333333  L 8.78733333333333 2.26773333333333  C 8.85266666666667 2.1632  8.92266666666667 2.05368888888889  8.99266666666667 1.9392  L 8.652 1.85955555555556  C 8.28333333333333 2.45688888888889  7.812 2.94471111111111  7.238 3.31306666666667  L 7.45266666666667 3.58684444444444  C 7.58333333333333 3.49724444444444  7.71866666666667 3.39768888888889  7.84933333333333 3.28817777777778  L 7.84933333333333 3.38275555555556  L 10.4626666666667 3.38275555555556  L 10.4626666666667 3.78097777777778  L 7.97533333333334 3.78097777777778  L 7.97533333333334 4.0896  L 10.4626666666667 4.0896  L 10.4626666666667 4.48782222222222  L 7.784 4.48782222222222  L 7.784 4.8064  Z M 9.898 2.5664  C 9.744 2.75555555555556  9.59 2.91982222222222  9.436 3.06417777777778  L 8.106 3.06417777777778  C 8.26466666666667 2.90986666666667  8.41866666666667 2.7456  8.56333333333333 2.5664  L 9.898 2.5664  Z M 8.078 5.18968888888889  L 7.75133333333333 5.12  C 7.658 5.49831111111111  7.51333333333333 5.85173333333333  7.31733333333333 6.17031111111111  L 7.602 6.36444444444444  C 7.80733333333333 6.03093333333333  7.966 5.63768888888889  8.078 5.18968888888889  Z M 8.82466666666667 6.41422222222222  L 9.93533333333333 6.41422222222222  C 10.122 6.41422222222222  10.2573333333333 6.37937777777778  10.3413333333333 6.30968888888889  C 10.444 6.22506666666667  10.5093333333333 5.99111111111111  10.542 5.60782222222222  L 10.2246666666667 5.49831111111111  C 10.206 5.78702222222222  10.164 5.96124444444444  10.1033333333333 6.02097777777778  C 10.0613333333333 6.06577777777778  9.98666666666667 6.09066666666667  9.87466666666667 6.09066666666667  L 8.92266666666667 6.09066666666667  C 8.80133333333333 6.09066666666667  8.74066666666667 6.02097777777778  8.74066666666667 5.88657777777778  L 8.74066666666667 5.05528888888889  L 8.40466666666667 5.05528888888889  L 8.40466666666667 5.96124444444444  C 8.40466666666667 6.25991111111111  8.54466666666667 6.41422222222222  8.82466666666667 6.41422222222222  Z M 9.898 5.55804444444444  C 9.77666666666667 5.37884444444444  9.59933333333333 5.1648  9.366 4.92586666666667  L 9.09066666666667 5.10506666666667  C 9.31466666666667 5.344  9.492 5.56302222222222  9.618 5.76213333333333  L 9.898 5.55804444444444  Z M 11.4566666666667 6.07075555555555  C 11.298 5.77208888888889  11.0786666666667 5.41866666666667  10.7893333333333 5.01546666666667  L 10.5186666666667 5.19466666666667  C 10.7986666666667 5.59288888888889  11.018 5.95128888888889  11.1766666666667 6.27982222222222  L 11.4566666666667 6.07075555555555  Z " fill-rule="nonzero" fill="#ff0000" stroke="none" transform="matrix(1 0 0 1 463 24 )" />
  </g>
</svg>