<?xml version="1.0" encoding="utf-8"?>
<svg version="1.1" xmlns:xlink="http://www.w3.org/1999/xlink" width="27px" height="30px" xmlns="http://www.w3.org/2000/svg">
  <g>
    <path d="M 27 0  L 8.94375 0  L 0 10.125  L 0 30  L 27 0  Z M 1.40624999121094 13.2500000097656  L 5.90625 8.31249999023438  L 7.14374999121094 9.68750000976562  L 6.75 10.0625000097656  L 6.63749999121094 9.9375  L 2.92499999121094 14.0625  L 3.0375 14.1875000097656  L 2.64375000878906 14.625  L 1.40624999121094 13.2500000097656  Z M 11.3624999912109 13.3125  L 5.96249999121094 19.3125  L 5.62499999121094 18.9375  L 6.4125 18.0624999902344  L 3.93749999121094 15.2499999902344  L 5.62499999121094 13.3749999902344  L 5.28749999121094 12.9999999902344  L 2.86875 15.6249999902344  L 2.58749999121094 15.3125000097656  L 4.94999999121094 12.6875000097656  L 4.66875000878906 12.375  L 5.0625 11.9375000097656  L 5.34375000878906 12.2499999902344  L 7.7625 9.5625  L 8.04375000878906 9.87500000976563  L 5.62499999121094 12.5625  L 5.96249999121094 12.9375  L 7.7625 10.9374999902344  L 10.29375 13.7499999902344  L 11.0249999912109 12.9375  L 11.3624999912109 13.3125  Z M 12.15 10.9374999902344  C 12.5437499912109 11.3749999804688  12.5437499912109 11.8749999902344  12.0937500087891 12.375  L 11.64375 12.8750000097656  C 11.475 12.6875000097656  11.2500000087891 12.5625  11.0812500087891 12.4374999902344  C 11.30625 12.3124999804688  11.475 12.1249999804688  11.64375 11.9375000097656  C 11.8125 11.7500000097656  11.8125 11.5625000097656  11.64375 11.3750000097656  L 8.04375000878906 7.37499999023438  L 7.14374999121094 8.37500000976563  L 6.75 7.875  L 8.775 5.625  L 9.16874999121094 6.06249999023438  L 8.49374999121094 6.87500000976563  L 12.15 10.9374999902344  Z M 12.65625 9.375  L 9.95625 6.50000000976563  L 10.96875 5.37500000976563  L 10.4062500087891 4.37499999023438  L 9.16874999121094 5.75000000976563  L 8.775 5.31249999023438  L 12.0374999912109 1.6875  L 12.3749999912109 2.18750000976563  L 10.8 3.9375  L 11.3624999912109 4.93749999023438  L 12.8812499912109 3.24999999023438  L 15.4687500087891 6.12500000976563  L 15.0749999912109 6.5625  L 12.8812499912109 4.125  L 10.8 6.43749999023438  L 13.0499999912109 8.93750000976563  L 12.65625 9.375  Z M 14.1187500087891 8.56250000976563  C 14.2875000087891 9.25000001953125  14.1187500087891 10.1875000195312  13.6125000087891 11.25  C 13.4437500087891 11.1875000097656  13.2187500175781 11.1249999902344  12.9375000087891 11.1249999902344  C 13.4437500087891 10.125  13.6125000087891 9.31249998046875  13.5562499912109 8.625  C 13.5 8.00000000976563  13.1062499824219 7.3125  12.4312500087891 6.5625  L 11.8125 5.87499999023438  L 12.2062499912109 5.4375  L 12.825 6.12500000976562  C 13.2750000087891 6.62500001953125  13.6125000087891 7.125  13.8375 7.56249999023438  C 14.85 7.3125  15.8062500087891 7.125  16.6500000087891 6.99999999023438  L 16.70625 7.74999999023438  C 15.8062500087891 7.81249998046875  14.9062499912109 7.99999998046875  14.0624999912109 8.18750000976563  C 14.1187499824219 8.31250001953125  14.1187499824219 8.4375  14.1187500087891 8.56250000976563  Z " fill-rule="nonzero" fill="#fa8d14" stroke="none" />
  </g>
</svg>