<?xml version="1.0" encoding="utf-8"?>
<svg version="1.1" xmlns:xlink="http://www.w3.org/1999/xlink" width="8px" height="7px" xmlns="http://www.w3.org/2000/svg">
  <g transform="matrix(1 0 0 1 -2 -11 )">
    <path d="M 0.841111102430556 2.734375  L 0.330555555555555 2.16000000976562  L 1.31222222222222 1.05499999023437  L 1.82333334201389 1.62937500976563  L 0.841111102430556 2.734375  Z M 3.71111110243055 5.26062499023438  L 3.35777776909722 4.8625  L 6.38277776909722 1.45999999023438  L 6.73611110243055 1.85749999023438  L 3.71111110243055 5.26062499023438  Z M 4.31944443576389 5.95500000976563  L 3.96611110243056 5.55750000976563  L 6.99111110243055 2.15437500976563  L 7.34444443576389 2.5525  L 4.31944443576389 5.95500000976563  Z M 3.10277776909722 4.56562500976563  L 2.74944443576389 4.16812500976562  L 5.77444443576389 0.765000009765625  L 6.12777776909722 1.163125  L 3.10277776909722 4.56562500976563  Z M 4.96500000868055 6.60937500976563  L 4.61166667534722 6.21124999023438  L 7.63777776909722 2.80999999023438  L 7.99111110243055 3.20812500976563  L 4.96500000868055 6.60937500976563  Z " fill-rule="nonzero" fill="#fa8d14" stroke="none" transform="matrix(1 0 0 1 2 11 )" />
  </g>
</svg>