<?xml version="1.0" encoding="utf-8"?>
<svg version="1.1" xmlns:xlink="http://www.w3.org/1999/xlink" width="26px" height="30px" xmlns="http://www.w3.org/2000/svg">
  <g transform="matrix(1 0 0 1 -13 -69 )">
    <path d="M 26 0  L 8.6125 0  L 0 10.125  L 0 30  L 26 0  Z M 1.35416665820312 13.2500000097656  L 5.6875 8.31249999023439  L 6.87916665820312 9.68750000976561  L 6.5 10.0625000097656  L 6.39166665820312 9.9375  L 2.81666665820312 14.0625  L 2.925 14.1875000097656  L 2.54583334179688 14.625  L 1.35416665820312 13.2500000097656  Z M 10.9416666582031 13.3125  L 5.74166665820312 19.3125  L 5.41666665820312 18.9375  L 6.175 18.0624999902344  L 3.79166665820312 15.2499999902344  L 5.41666665820312 13.3749999902344  L 5.09166665820312 12.9999999902344  L 2.7625 15.6249999902344  L 2.49166665820312 15.3125000097656  L 4.76666665820312 12.6875000097656  L 4.49583334179688 12.375  L 4.875 11.9375000097656  L 5.14583334179688 12.2499999902344  L 7.475 9.5625  L 7.74583334179688 9.87500000976561  L 5.41666665820312 12.5625  L 5.74166665820312 12.9375  C 5.74166665820312 12.9375  6.89722221940104 11.6041666601563  7.475 10.9374999902344  C 8.2875 11.8749999902344  9.9125 13.7499999902344  9.9125 13.7499999902344  L 10.6166666582031 12.9375  L 10.9416666582031 13.3125  Z M 11.7 10.9374999902344  C 12.0791666582031 11.3749999804687  12.0791666582031 11.8749999902344  11.6458333417969 12.375  L 11.2125 12.8750000097656  C 11.05 12.6875000097656  10.8333333417969 12.5625  10.6708333417969 12.4374999902344  C 10.8875 12.3124999804687  11.05 12.1249999804687  11.2125 11.9375000097656  C 11.375 11.7500000097656  11.375 11.5625000097656  11.2125 11.3750000097656  L 7.74583334179688 7.37499999023439  L 6.87916665820312 8.37500000976561  L 6.5 7.875  L 8.45 5.625  L 8.82916665820312 6.06249999023439  L 8.17916665820312 6.87500000976561  L 11.7 10.9374999902344  Z M 12.1875 9.375  L 9.5875 6.50000000976561  L 10.5625 5.37500000976561  L 10.0208333417969 4.37499999023439  L 8.82916665820312 5.75000000976561  L 8.45 5.31249999023439  L 11.5916666582031 1.6875  L 11.9166666582031 2.18750000976561  L 10.4 3.9375  L 10.9416666582031 4.93749999023439  L 12.4041666582031 3.24999999023439  L 14.8958333417969 6.12500000976561  L 14.5166666582031 6.5625  L 12.4041666582031 4.125  C 12.4041666582031 4.125  11.0680555527344 5.66666666015627  10.4 6.43749999023439  C 11.122222219401 7.27083333007812  12.5666666582031 8.93750000976561  12.5666666582031 8.93750000976561  L 12.1875 9.375  Z M 13.5958333417969 8.56250000976561  C 13.7583333417969 9.25000001953126  13.5958333417969 10.1875000195313  13.1083333417969 11.25  C 12.9458333417969 11.1875000097656  12.7291666835938 11.1249999902344  12.4583333417969 11.1249999902344  C 12.9458333417969 10.125  13.1083333417969 9.31249998046874  13.0541666582031 8.625  C 13 8.00000000976561  12.6208333164062 7.3125  11.9708333417969 6.5625  L 11.375 5.87499999023439  L 11.7541666582031 5.4375  L 12.35 6.12500000976561  C 12.7833333417969 6.62500001953126  13.1083333417969 7.125  13.325 7.56249999023439  C 14.3 7.3125  15.2208333417969 7.125  16.0333333417969 6.99999999023439  L 16.0875 7.74999999023439  C 15.2208333417969 7.81249998046874  14.3541666582031 7.99999998046874  13.5416666582031 8.18750000976561  C 13.5958333164062 8.31250001953126  13.5958333164062 8.4375  13.5958333417969 8.56250000976561  Z " fill-rule="nonzero" fill="#fa8d14" stroke="none" transform="matrix(1 0 0 1 13 69 )" />
  </g>
</svg>