<?xml version="1.0" encoding="utf-8"?>
<svg version="1.1" xmlns:xlink="http://www.w3.org/1999/xlink" width="15px" height="15px" xmlns="http://www.w3.org/2000/svg">
  <g transform="matrix(1 0 0 1 -947 -2080 )">
    <path d="M 0 7.5  C 0 3.35775  3.35775 0  7.5 0  C 11.64225 0  15 3.35775  15 7.5  C 15 11.64225  11.64225 15  7.5 15  C 3.35775 15  0 11.64225  0 7.5  Z M 13.875 7.5  C 13.875 3.979125  11.020875 1.125  7.5 1.125  C 3.979125 1.125  1.125 3.979125  1.125 7.5  C 1.125 11.020875  3.979125 13.875  7.5 13.875  C 11.020875 13.875  13.875 11.020875  13.875 7.5  Z " fill-rule="nonzero" fill="#ffffff" stroke="none" transform="matrix(1 0 0 1 947 2080 )" />
  </g>
</svg>