<?xml version="1.0" encoding="utf-8"?>
<svg version="1.1" xmlns:xlink="http://www.w3.org/1999/xlink" width="8px" height="6px" xmlns="http://www.w3.org/2000/svg">
  <g transform="matrix(1 0 0 1 -950 -2084 )">
    <path d="M 7.00740740740741 0.224  C 7.11210134581269 0.106865710245208  7.25637429797346 0.0407076432535132  7.4071187444941 0.0407076432535132  C 7.71394360551121 0.0407076432535132  7.96267430004965 0.309336793355037  7.96267430004965 0.640707643253512  C 7.96267430004965 0.774188719426006  7.92146104373435 0.903858568726583  7.84555555555556 1.0092  L 7.80814814814815 1.0556  L 3.64148148148148 5.738  C 3.44185815653137 5.96267280914084  3.11627035198557 5.98508431750513  2.89185185185185 5.7896  L 2.84888888888889 5.748  L 0.200740740740741 2.906  C 0.0957384777047823 2.79336353285812  0.0366888328489649 2.6401352385819  0.0366888328489649 2.48030067394316  C 0.0366888328489649 2.14892982404468  0.285419527387414 1.88030067394316  0.592244388404521 1.88030067394316  C 0.719520313724606 1.88030067394316  0.842937102262694 1.92749858353277  0.941851851851852 2.014  L 0.984074074074075 2.0548  L 3.23148148148148 4.4664  L 7.00703703703704 0.224399999999999  Z " fill-rule="nonzero" fill="#ffffff" stroke="none" transform="matrix(1 0 0 1 950 2084 )" />
  </g>
</svg>