<?xml version="1.0" encoding="utf-8"?>
<svg version="1.1" xmlns:xlink="http://www.w3.org/1999/xlink" width="15px" height="15px" xmlns="http://www.w3.org/2000/svg">
  <g transform="matrix(1 0 0 1 -806 -2080 )">
    <path d="M 11.6993548237771 5.65023916624136  C 11.6993548237771 6.32869271896592  11.5539236012092 7.06937732117619  11.2630611559261 7.87364578360553  C 10.9721987106431 8.67791426119857  10.5365814709779 9.31240023609257  9.95485659572275 9.77778015148987  L 10.2457190410058 9.98070744111181  L 9.83918804888701 10.7369497866285  L 9.57741185115028 10.6206048116069  C 9.26693310816779 10.4650272260227  9.08768067063835 10.2181323585702  9.03965453856195 9.87924379637445  C 8.99095199346341 9.54035523403148  9.1025620010698 9.26369769099403  9.37380813348972 9.05062403835584  C 9.83918804903423 8.68264922861377  10.1875465459132 8.15977326147338  10.4202365112673 7.48131970874882  C 10.6529264614577 6.80286615602426  10.7685950234571 6.19273144609768  10.768595007999 5.65023916624136  L 10.768595007999 3.32469247580677  C 10.768595007999 2.82143280636581  10.4155015285411 2.30802677390861  9.70796172841748 1.78447437858236  C 9.00109835633245 1.26159841144198  8.26920727593044 0.999822213705245  7.51364134328871 0.999822198541536  C 6.73845911324199 0.999822198541536  6.00250949361063 1.26159839613105  5.30443962802293 1.78447437858236  C 4.60772261880693 2.30802677405583  4.25868767857844 2.82143280636581  4.25868769374215 3.32469247580677  L 4.25868769374215 5.65023916624136  C 4.25868769374215 6.17311513338175  4.37976763617894 6.77919130422621  4.62192753621624 7.46711479148673  C 4.86408743625354 8.15436186587233  5.20771096586448 8.68264922861377  5.65347456854586 9.05062403835584  C 5.92472070096577 9.26369769084681  6.04106569129829 9.54035521886778  6.00250949361063 9.87924379637445  C 5.96327688304805 10.2181323587174  5.78943584111966 10.4650272260227  5.47895709828439 10.6206048116069  L 1.38117878862084 12.5389440815896  C 1.12887252556729 12.6546126282781  1.00305761586252 12.8298065268726  1.00305760069881 13.06182004873  L 1.00305760069881 14.020989698885  L 9.83918804888702 14.020989698885  L 9.83918804888702 14.9510730864773  L 1.00238118767666 14.9510730864773  C 0.731135055256752 14.9510730864773  0.508591452771671 14.8590793764231  0.334073982657428 14.6750919714785  C 0.163593090156437 14.5004073199994  0.0696464745451556 14.2650540107485  0.0729742132537688 14.020989698885  L 0.0729742132537688 12.6255263960427  C 0.0729742132537688 12.4706252387916  0.160232940876256 12.3109890988144  0.334750410990499 12.1466179915692  C 0.509267881251963 11.9815704713018  0.644552740803628 11.8699604635482  0.741281403109296 11.8117879836193  C 0.838686493600817 11.7536154885266  0.925268808053942 11.7150593061499  1.00305760069881 11.695442993434  L 5.07242610601837 9.74869390409077  C 4.49070121545226 9.28331398854625  4.05508397593436 8.64409304638427  3.7642215306513 7.8303546338136  C 3.47335908536825 7.01661622139015  3.32860429098618 6.28946010825612  3.32860429098618 5.65023916624136  L 3.32860429098618 3.32469247580677  C 3.32860429098618 2.5501866739459  3.76895649806651 1.81356062612869  4.65101376845163 1.11616717356313  C 5.53171819777599 0.418773736308496  6.48209431110631 0.0697388109492776  7.49876001300448 0.0697388109492776  C 8.51610214308849 0.0697388109492776  9.47053681081187 0.418773736161275  10.3620640160274 1.11616717356313  C 11.2535912212429 1.81356061081776  11.6986784107549 2.55018665878219  11.698678395444 3.32536888897613  L 11.698678395444 5.65023916624136  Z M 14.8379635134658 11.5216019513584  L 13.5013491187382 12.8291300985396  L 14.8379635134658 14.1664209062893  C 15.0510371659567 14.3794945587802  15.0463021985415 14.5973031785392  14.8237585962037 14.8205231940464  C 14.6005385808437 15.0437432094064  14.3827299609375 15.0383318139526  14.1696563237575 14.8056418637622  L 12.8614517482432 13.498113716581  L 11.5248373688266 14.8056418637622  C 11.3117637163356 15.0383318139526  11.0932786683908 15.0430667812206  10.8707350812166 14.8205231940464  C 10.6475150658566 14.5973031786864  10.6529264613105 14.3794945587802  10.8849399831678 14.1664209062893  L 12.1931445586821 12.8291300985396  L 10.8849399831678 11.5216019513584  C 10.6529264461467 11.3085282988674  10.6481914787315 11.0900432509226  10.8707350812166 10.8674996789121  C 11.0939550965766 10.6442796635521  11.3117637164828 10.649691059006  11.5248373688266 10.8817045810105  L 12.8614517482432 12.1899091563776  L 14.1696563237575 10.8817045810105  C 14.3827299762484 10.6496910439895  14.6005385960074 10.6449560765743  14.8237585962037 10.8674996789121  C 15.0469786115637 11.0907196942721  15.051037150793 11.3085283141783  14.8379635134658 11.5216019513584  Z " fill-rule="nonzero" fill="#ffffff" stroke="none" transform="matrix(1 0 0 1 806 2080 )" />
  </g>
</svg>