<?xml version="1.0" encoding="utf-8"?>
<svg version="1.1" xmlns:xlink="http://www.w3.org/1999/xlink" width="80px" height="35px" xmlns="http://www.w3.org/2000/svg">
  <g transform="matrix(1 0 0 1 -1740 -261 )">
    <path d="M 1741 266  A 4 4 0 0 1 1745 262 L 1815 262  A 4 4 0 0 1 1819 266 L 1819 291  A 4 4 0 0 1 1815 295 L 1745 295  A 4 4 0 0 1 1741 291 L 1741 266  Z " fill-rule="nonzero" fill="#f0f7ff" stroke="none" />
    <path d="M 1740.5 266  A 4.5 4.5 0 0 1 1745 261.5 L 1815 261.5  A 4.5 4.5 0 0 1 1819.5 266 L 1819.5 291  A 4.5 4.5 0 0 1 1815 295.5 L 1745 295.5  A 4.5 4.5 0 0 1 1740.5 291 L 1740.5 266  Z " stroke-width="1" stroke="#7abbff" fill="none" stroke-opacity="0.996078431372549" />
  </g>
</svg>