<?xml version="1.0" encoding="utf-8"?>
<svg version="1.1" xmlns:xlink="http://www.w3.org/1999/xlink" width="80px" height="35px" xmlns="http://www.w3.org/2000/svg">
  <g transform="matrix(1 0 0 1 -1740 -261 )">
    <path d="M 1740.5 266  A 4.5 4.5 0 0 1 1745 261.5 L 1815 261.5  A 4.5 4.5 0 0 1 1819.5 266 L 1819.5 291  A 4.5 4.5 0 0 1 1815 295.5 L 1745 295.5  A 4.5 4.5 0 0 1 1740.5 291 L 1740.5 266  Z " fill-rule="nonzero" fill="#f9f9f9" stroke="none" fill-opacity="0" />
    <path d="M 1740.5 266  A 4.5 4.5 0 0 1 1745 261.5 L 1815 261.5  A 4.5 4.5 0 0 1 1819.5 266 L 1819.5 291  A 4.5 4.5 0 0 1 1815 295.5 L 1745 295.5  A 4.5 4.5 0 0 1 1740.5 291 L 1740.5 266  Z " stroke-width="1" stroke="#e4e4e4" fill="none" />
  </g>
</svg>