<?xml version="1.0" encoding="utf-8"?>
<svg version="1.1" xmlns:xlink="http://www.w3.org/1999/xlink" width="15px" height="13px" xmlns="http://www.w3.org/2000/svg">
  <g transform="matrix(1 0 0 1 -1640 -273 )">
    <path d="M 14.07275390625 7.05517578125  C 13.98486328125 6.79443359375  13.81201171875 6.6201171875  13.55126953125 6.6201171875  L 12.943359375 6.6201171875  L 12.943359375 3.4912109375  C 12.943359375 3.2509765625  12.74853515625 3.05615234375  12.50830078125 3.05615234375  L 7.3798828125 3.05615234375  L 7.3798828125 2.79541015625  C 7.3798828125 2.708984375  7.29345703125 2.53466796875  7.20556640625 2.4482421875  L 5.466796875 0.70947265625  C 5.38037109375 0.70947265625  5.29248046875 0.623046875  5.2060546875 0.623046875  L 2.337890625 0.623046875  C 2.0771484375 0.623046875  1.81640625 0.8837890625  1.81640625 1.23095703125  L 1.81640625 6.70654296875  L 1.3828125 6.70654296875  C 1.142578125 6.70654296875  0.94775390625 6.9013671875  0.94775390625 7.1416015625  L 0.94775390625 11.3134765625  C 0.94775390625 11.8349609375  1.3828125 12.3564453125  1.99072265625 12.3564453125  L 8.8828125 12.3564453125  C 9.146484375 12.3564453125  9.3603515625 12.142578125  9.3603515625 11.87890625  C 9.3603515625 11.615234375  9.146484375 11.4013671875  8.8828125 11.4013671875  L 1.99072265625 11.4013671875  C 1.8955078125 11.4013671875  1.81640625 11.32373046875  1.81640625 11.22705078125  L 1.81640625 7.490234375  L 13.1162109375 7.490234375  L 13.1162109375 7.4873046875  L 13.640625 7.4873046875  C 13.87939453125 7.4873046875  14.07275390625 7.2939453125  14.07275390625 7.05517578125  Z M 5.20458984375 1.75244140625  L 5.2060546875 1.75244140625  L 6.33544921875 2.8818359375  L 5.6396484375 2.8818359375  C 5.37890625 2.79541015625  5.20458984375 2.62109375  5.20458984375 2.3603515625  L 5.20458984375 1.75244140625  Z M 6.51123046875 3.66552734375  L 6.51123046875 6.6201171875  L 2.68505859375 6.6201171875  L 2.68505859375 1.49169921875  L 4.33740234375 1.49169921875  L 4.33740234375 2.36181640625  C 4.33740234375 3.0576171875  4.9453125 3.66552734375  5.64111328125 3.66552734375  L 6.51123046875 3.66552734375  Z M 8.33642578125 3.92626953125  L 8.33642578125 6.6201171875  L 7.3798828125 6.6201171875  L 7.3798828125 3.92626953125  L 8.33642578125 3.92626953125  Z M 10.16015625 3.92626953125  L 10.16015625 6.6201171875  L 9.20361328125 6.6201171875  L 9.20361328125 3.92626953125  L 10.16015625 3.92626953125  Z M 12.0732421875 3.92626953125  L 12.0732421875 6.6201171875  L 11.11669921875 6.6201171875  L 11.11669921875 3.92626953125  L 12.0732421875 3.92626953125  Z " fill-rule="nonzero" fill="#ffffff" stroke="none" transform="matrix(1 0 0 1 1640 273 )" />
  </g>
</svg>