<?xml version="1.0" encoding="utf-8"?>
<svg version="1.1" xmlns:xlink="http://www.w3.org/1999/xlink" width="18px" height="13px" xmlns="http://www.w3.org/2000/svg">
  <g transform="matrix(1 0 0 1 -1650 -515 )">
    <path d="M 17.4985714335937 7.56255102273996  C 17.8649455538034 6.89503081712219  17.8649455538034 6.10496918287781  17.4985714335937 5.43744897726005  C 17.0542562144061 4.63626769111066  16.4868974510209 3.89930454228821  15.8142857167969 3.24966836035156  C 14.0247761915787 1.54075957562617  11.5669595714048 0.5766337387839  9 0.5766337387839  C 6.43304042859515 0.5766337387839  3.97522380842131 1.54075957562617  2.18571428320312 3.24966836035156  C 1.51310254897912 3.89930454228821  0.945743785593923 4.63626769111066  0.50142856640625 5.43744897726005  C 0.135054446196593 6.10496918287782  0.135054446196593 6.89503081712219  0.50142856640625 7.56255102273996  C 0.945743785593923 8.36373230888934  1.51310254897912 9.10069545771179  2.18571428320312 9.75033163964844  C 3.97522380842131 11.4592404243738  6.43304042859515 12.4233662612161  9 12.4233662612161  C 11.5669595714048 12.4233662612161  14.0247761915787 11.4592404243738  15.8142857167969 9.75033163964844  C 16.4868974510209 9.10069545771179  17.0542562144061 8.36373230888934  17.4985714335937 7.56255102273996  Z M 11.8928571503906 6.5  C 11.8928571503906 7.98356082419973  10.5976808875997 9.18622449679129  9 9.18622449679129  C 7.40231911240029 9.18622449679129  6.10714284960937 7.98356082419973  6.10714284960937 6.5  C 6.10714284960937 5.01643917580027  7.40231911240029 3.8137755032087  9 3.8137755032087  C 10.5976808875997 3.8137755032087  11.8928571503906 5.01643917580027  11.8928571503906 6.5  Z " fill-rule="nonzero" fill="#0ff265" stroke="none" transform="matrix(1 0 0 1 1650 515 )" />
  </g>
</svg>