<?xml version="1.0" encoding="utf-8"?>
<svg version="1.1" xmlns:xlink="http://www.w3.org/1999/xlink" width="8px" height="8px" xmlns="http://www.w3.org/2000/svg">
  <g transform="matrix(1 0 0 1 -1747 -30 )">
    <path d="M 7.74412747460937 3.80103739648438  C 7.74412748828125 2.79089427539063  7.35075618554687 1.84121815234375  6.63647047070313 1.12691845117187  C 5.92218475585937 0.412632736328124  4.97249464648437 0.0192614472656238  3.96235152539062 0.0192614472656238  C 2.95219441796875 0.0192614472656238  2.00251829492187 0.412632736328124  1.28821859375 1.12691845117187  C 0.573932878906249 1.84120416601563  0.180561589843749 2.79089427539062  0.180561589843749 3.80103739648438  C 0.180561589843749 4.81118051757813  0.573932878906249 5.76087062695312  1.28821859375 6.475170328125  C 2.00250430859375 7.18945604296875  2.95219441796875 7.58282733203125  3.96235152539062 7.58282733203125  C 4.97249464648437 7.58282733203125  5.92218475585937 7.18945604296875  6.63647047070313 6.475170328125  C 7.35075618554687 5.76087062695312  7.74412747460937 4.81118051757812  7.74412747460937 3.80103739648438  Z M 6.90469662109375 3.80103739648438  C 6.90469662109375 5.4234613984375  5.58476152734375 6.74339647851562  3.96235152539063 6.74339647851562  C 2.3399275234375 6.74339647851562  1.01999244335937 5.4234613984375  1.01999244335937 3.80103739648438  C 1.01999244335937 2.17862739453125  2.3399275234375 0.85869230078125  3.96235152539062 0.85869230078125  C 5.58476152734375 0.85869230078125  6.90469662109375 2.17862738085937  6.90469662109375 3.80103739648438  Z " fill-rule="nonzero" fill="#999999" stroke="none" transform="matrix(1 0 0 1 1747 30 )" />
  </g>
</svg>