<?xml version="1.0" encoding="utf-8"?>
<svg version="1.1" xmlns:xlink="http://www.w3.org/1999/xlink" width="18px" height="18px" xmlns="http://www.w3.org/2000/svg">
  <g transform="matrix(1 0 0 1 -25 -16 )">
    <path d="M 17.853515625 9.74609375  C 17.853515625 9.4140625  17.72265625 9.099609375  17.486328125 8.86328125  L 9.939453125 1.3203125  L 9.43359375 0.814453125  C 9.193359375 0.576171875  8.806640625 0.576171875  8.56640625 0.814453125  L 0.513671875 8.86328125  C 0.2734375 9.103515625  0.14453125 9.421875  0.146484375 9.76171875  C 0.154296875 10.44921875  0.7265625 10.998046875  1.4140625 10.998046875  L 2.244140625 10.998046875  L 2.244140625 17  L 15.755859375 17  L 15.755859375 10.998046875  L 16.603515625 10.998046875  C 16.9375 10.998046875  17.251953125 10.8671875  17.48828125 10.630859375  C 17.724609375 10.39453125  17.853515625 10.080078125  17.853515625 9.74609375  Z M 10.09375 11.96875  L 10.09375 15.953125  L 7.90625 15.953125  L 7.90625 11.96875  L 10.09375 11.96875  Z M 16.2265625 9.591796875  L 14.349609375 9.591796875  L 14.349609375 15.953125  L 11.34375 15.953125  L 11.34375 11.5  C 11.34375 11.068359375  10.994140625 10.71875  10.5625 10.71875  L 7.4375 10.71875  C 7.005859375 10.71875  6.65625 11.068359375  6.65625 11.5  L 6.65625 15.953125  L 3.650390625 15.953125  L 3.650390625 9.591796875  L 1.775390625 9.591796875  L 9.001953125 2.37109375  L 9.453125 2.822265625  L 16.2265625 9.591796875  Z " fill-rule="nonzero" fill="#cccccc" stroke="none" transform="matrix(1 0 0 1 25 16 )" />
  </g>
</svg>