<?xml version="1.0" encoding="utf-8"?>
<svg version="1.1" xmlns:xlink="http://www.w3.org/1999/xlink" width="16px" height="15px" xmlns="http://www.w3.org/2000/svg">
  <g transform="matrix(1 0 0 1 -28 -18 )">
    <path d="M 13.4295081967213 14.8275862068966  L 13.4120218579235 4.36206896551724  C 13.4120218579235 4.24137931034483  13.4469945355191 4.18965517241379  13.5868852459016 4.18965517241379  L 15.7027322404372 4.18965517241379  C 15.8251366120219 4.18965517241379  15.8775956284153 4.22413793103448  15.8775956284153 4.36206896551724  L 15.8775956284153 14.8275862068966  C 15.8775956284153 14.948275862069  15.8426229508197 15  15.7027322404372 15  L 13.6043715846995 15  C 13.4644808743169 15  13.4295081967213 14.9310344827586  13.4295081967213 14.8275862068966  Z M 14.6010928961749 2.70689655172414  C 13.8142076502732 2.72413793103448  13.272131147541 2.24137931034483  13.272131147541 1.36206896551724  C 13.272131147541 0.517241379310345  13.8841530054645 0.0172413793103451  14.6360655737705 0.0172413793103451  C 15.4579234972678 0.0172413793103451  16 0.56896551724138  16 1.36206896551724  C 16 2.24137931034483  15.4229508196721 2.70689655172414  14.6010928961749 2.70689655172414  Z M 3.98688524590164 8.72413793103448  L 7.20437158469945 8.72413793103448  C 6.83715846994536 7.25862068965517  5.94535519125683 4.05172413793103  5.59562841530055 2.5  L 5.56065573770492 2.5  C 5.28087431693989 4.05172413793103  4.56393442622951 6.67241379310345  3.98688524590164 8.72413793103448  Z M 7.76393442622951 10.8793103448276  C 7.78142076502732 10.8965517241379  3.46229508196721 10.8793103448276  3.46229508196721 10.8793103448276  L 2.39562841530055 14.8620689655172  C 2.36065573770492 14.9827586206897  2.32568306010929 15  2.18579234972678 15  L 0.227322404371585 15  C 0.087431693989071 15  0.0524590163934426 14.9655172413793  0.087431693989071 14.7931034482759  L 3.91693989071038 1.60344827586207  C 3.98688524590164 1.37931034482758  4.03934426229508 1.1551724137931  4.0568306010929 0.499999999999999  C 4.0568306010929 0.39655172413793  4.09180327868853 0.36206896551724  4.1792349726776 0.36206896551724  L 6.99453551912568 0.36206896551724  C 7.09945355191257 0.36206896551724  7.1344262295082 0.39655172413793  7.16939890710383 0.499999999999999  L 11.4535519125683 14.8103448275862  C 11.4885245901639 14.9310344827586  11.4535519125683 14.9827586206897  11.3311475409836 14.9827586206897  L 9.09289617486339 14.9827586206897  C 8.97049180327869 14.9827586206897  8.91803278688525 14.948275862069  8.88306010928962 14.8620689655172  L 7.76393442622951 10.8793103448276  Z " fill-rule="nonzero" fill="#cccccc" stroke="none" transform="matrix(1 0 0 1 28 18 )" />
  </g>
</svg>