<?xml version="1.0" encoding="utf-8"?>
<svg version="1.1" xmlns:xlink="http://www.w3.org/1999/xlink" width="12px" height="10px" xmlns="http://www.w3.org/2000/svg">
  <g transform="matrix(1 0 0 1 -104 -28 )">
    <path d="M 10.5458984375 10  C 5.02317116210938 10  0.545898437500002 5.52272727539063  0.545898437500002 0  L 11.4549893457031 0  L 11.4549893457031 10  L 10.5458984375 10  Z M 6.6822620703125 4.71090909179688  L 8.25317116210938 6.28227272460937  C 8.30437958427325 6.32883712016213  8.37110756620024 6.35463924339794  8.44032133241553 6.35463924339794  C 8.59395690729694 6.35463924339794  8.71850314882178 6.23009300187309  8.71850314882178 6.07645742699169  C 8.71850314882178 6.00735465225503  8.69278353169719 5.94072550595152  8.64635297851563 5.88954545898437  L 7.07498934570313 4.31818181640625  L 8.6458984375 2.74681818359375  C 8.69797731222168 2.69473930887208  8.72723491939032 2.62410519684296  8.72723491939032 2.55045454589844  C 8.72723491939032 2.39708500482511  8.60290434087802 2.27275442631281  8.44953479980469 2.27275442631281  C 8.37588414886017 2.27275442631281  8.30525003683105 2.30201203348145  8.25317116210938 2.35409090820312  L 6.6822620703125 3.925  L 5.1108984375 2.35454545898438  C 5.05997962524523 2.30929355795803  4.99422655719513 2.28429811126105  4.92610563538739 2.28429811126105  C 4.77247006050599 2.28429811126105  4.64792381898114 2.4088443527859  4.64792381898114 2.5624799276673  C 4.64792381898114 2.63060084709148  4.67291926393255 2.69635391301101  4.71817116210938 2.74727272460938  L 6.2895348046875 4.31818181640625  L 4.71817116210938 5.88954545898438  C 4.66439831203227 5.94183491272081  4.63406116361598 6.01365074362795  4.63406116361598 6.08865545266325  C 4.63406116361598 6.24203999147355  4.75840390019631 6.36638272805388  4.9117884390066 6.36638272805388  C 4.98679315043835 6.36638272805388  5.05860898343002 6.3360455777048  5.1108984375 6.28227272460938  L 6.6822620703125 4.71090909179688  Z " fill-rule="nonzero" fill="#8cd0f1" stroke="none" transform="matrix(1 0 0 1 104 28 )" />
  </g>
</svg>