<?xml version="1.0" encoding="utf-8"?>
<svg version="1.1" xmlns:xlink="http://www.w3.org/1999/xlink" width="17px" height="13px" xmlns="http://www.w3.org/2000/svg">
  <g transform="matrix(1 0 0 1 -37 -512 )">
    <path d="M 16.7429362548828 0.611127661132812  C 16.7572515869141 0.294917041015625  16.5126424316406 0.0269487304687495  16.1964568115234 0.0125834716796884  C 15.8802961669922 -0.00178178710937438  15.6123278564453 0.242877343750001  15.5979126220703 0.559037963867187  C 15.5956391601562 0.609403808593751  15.5876945556641 0.714157788085936  15.5709059326172 0.865255346679687  C 15.5423253173828 1.12278073730469  15.4986549072266 1.41113522949219  15.4368718017578 1.72234924316406  C 15.2604414306641 2.61134650878906  14.9754846191406 3.49956928710938  14.5599913330078 4.32328581542969  C 13.3961054443359 6.63062143554687  11.4612173095703 7.99357236328125  8.5 8.00289104003906  C 5.53880769042969 7.99357236328125  3.60384460449219 6.63062143554687  2.44000866699219 4.32328581542969  C 2.02451538085938 3.49956928710938  1.73950861816406 2.611371484375  1.56307822265625 1.72234924316406  C 1.50132009277344 1.41113525390625  1.45767468261719 1.12278076171875  1.42909406738281 0.865255346679689  C 1.41230544433594 0.714157788085938  1.40433586425781 0.609403808593752  1.40203740234375 0.559037963867189  C 1.38767214355469 0.242877319335937  1.11970383300781 -0.00178181152343626  0.803543188476564 0.0125834716796884  C 0.487332568359376 0.0269487304687512  0.242673461914063 0.294917041015626  0.257088696289063 0.611127661132814  C 0.269630200195313 0.887964965820313  0.321320141601563 1.35317456054688  0.4388904296875 1.94547297363281  C 0.6342080078125 2.92975563964844  0.950268725585937 3.91483774414062  1.41670246582031 4.83946083984375  C 2.68234436035156 7.34865959472656  4.80957709960938 8.91971943359375  7.89758342285156 9.11233881835937  L 7.89758342285156 11.2021718994141  L 3.109030078125 11.2021719238281  C 2.79249467773438 11.2021719238281  2.53594362792969 11.4587729492188  2.53594362792969 11.7752583740234  C 2.53594362792969 12.0917937744141  2.79249467773438 12.3483448242187  3.109030078125 12.3483448242187  L 13.8965661376953 12.3483448242187  C 14.2130515625 12.3483448242187  14.4696525878906 12.0917937744141  14.4696525878906 11.7752583740234  C 14.4696525878906 11.4587729492188  14.2130515625 11.2021719238281  13.8965661376953 11.2021719238281  L 9.04375632324219 11.2021719238281  L 9.04375632324219 9.11588642578125  C 12.163666015625 8.93988076171875  14.3096360595703 7.364548828125  15.5833224853516 4.83946083984375  C 16.04973125 3.91483774414062  16.3658169433594 2.92975561523437  16.5611345214844 1.94547297363281  C 16.6787048095703 1.35317456054688  16.7303447998047 0.887964965820313  16.7429362548828 0.611127661132812  Z " fill-rule="nonzero" fill="#555555" stroke="none" transform="matrix(1 0 0 1 37 512 )" />
  </g>
</svg>