<?xml version="1.0" encoding="utf-8"?>
<svg version="1.1" xmlns:xlink="http://www.w3.org/1999/xlink" width="11px" height="17px" xmlns="http://www.w3.org/2000/svg">
  <g transform="matrix(1 0 0 1 -40 -502 )">
    <path d="M 0.734805810546874 11.3772332275391  C 0.734805810546876 13.9796687744141  2.84827287597656 16.0945349121094  5.4553552734375 16.0945349121094  C 8.05711628417969 16.0945349121094  10.1759047363281 13.9825668212891  10.1759047363281 11.3772332519531  L 10.1759047363281 5.36893186035156  C 10.1759047363281 2.76657126464844  8.06243767089844 0.651630200195312  5.4553552734375 0.651630200195312  C 2.85354431152344 0.651630200195312  0.734805810546874 2.7636482421875  0.734805810546874 5.36893186035156  L 0.734805810546874 11.3772332275391  Z M 1.88097868652344 11.3772332275391  L 1.88097868652344 5.36893186035156  C 1.88097868652344 3.39886755371094  3.4843666015625 1.79780307617187  5.45538024902344 1.79780307617187  C 7.42851745605469 1.79780307617187  9.02978181152344 3.39864270019531  9.02978181152344 5.36893186035156  L 9.02978181152344 11.3772332275391  C 9.02978181152344 13.3473474853516  7.42639389648437 14.9483620117187  5.45538024902344 14.9483620117187  C 3.48224304199219 14.9483620117187  1.88097868652344 13.3475723388672  1.88097868652344 11.3772332275391  Z " fill-rule="nonzero" fill="#555555" stroke="none" transform="matrix(1 0 0 1 40 502 )" />
  </g>
</svg>