<?xml version="1.0" encoding="utf-8"?>
<svg version="1.1" xmlns:xlink="http://www.w3.org/1999/xlink" width="23px" height="23px" xmlns="http://www.w3.org/2000/svg">
  <g transform="matrix(1 0 0 1 -310 -502 )">
    <path d="M 22.0137268925781 13.0936368534331  C 22.8918470371094 12.6534538703128  23.2489342783203 11.5799463704431  22.8087512714844 10.701826205954  C 22.6380680693359 10.3604598026302  22.355093296875 10.0774850309759  22.0137268925781 9.90680182931395  L 2.57830024707031 0.189088523029617  C 2.15159225292969 -0.0242654734325364  1.66873845117188 -0.0579529489224488  1.21732630078125 0.0925177674455141  C 0.765914150390625 0.242988483813477  0.402089436523437 0.561896577631002  0.188735439453125 0.98635874634296  C -0.0336018994140625 1.43327922456121  -0.0605518798828125 1.95431217131821  0.119114641601563 2.42144513483042  L 3.60913695507813 11.5013422534797  L 0.119114641601563 20.5789935479166  C -0.051568560546875 21.0236682019225  -0.0380935703125 21.5087678265163  0.155047963867187 21.9422133145386  C 0.348189475585937 22.3779046492342  0.700785045898437 22.7102877107868  1.14321385449219 22.8809709349096  C 1.34983035644531 22.9595750294121  1.56543020019531 23  1.78327586816406 23  C 2.05726732128906 23  2.33125877441406 22.9371167199058  2.58054607128906 22.8135959839298  L 22.0137268925781 13.0936368534331  Z M 21.2187025136719 11.4968505825941  L 1.77653837304687 21.2145638888784  L 5.17223575488281 12.3884457372792  L 12.1432970175781 12.3884457372792  C 12.6328883144531 12.3884457372792  13.0304005039062 11.9909335489591  13.0304005039062 11.5013422534797  C 13.0304005039062 11.0117509580003  12.6328883144531 10.6142387696802  12.1432970175781 10.6142387696802  L 5.17223575488281 10.6142387696802  L 1.78552169238281 1.77913729877067  L 21.2187025136719 11.4968505825941  Z " fill-rule="nonzero" fill="#02a7f0" stroke="none" transform="matrix(1 0 0 1 310 502 )" />
  </g>
</svg>