<?xml version="1.0" encoding="utf-8"?>
<svg version="1.1" xmlns:xlink="http://www.w3.org/1999/xlink" width="17px" height="17px" xmlns="http://www.w3.org/2000/svg">
  <g transform="matrix(1 0 0 1 -896 -17 )">
    <path d="M 15.0875 10.51875  L 16.7875 13.06875  L 7.4375 13.06875  L 7.4375 12.00625  L 14.76875 12.00625  L 14.2375 11.15625  L 15.0875 10.51875  Z M 7.54375 14.13125  L 8.7125 16.46875  L 9.66875 16.04375  L 9.24375 15.19375  L 16.7875 15.19375  L 16.7875 14.13125  L 7.54375 14.13125  Z M 11.475 10.94375  C 10.51875 10.30625  9.35 9.88125  7.96875 9.88125  C 4.35625 9.88125  1.4875 12.64375  1.16875 16.15  L 0.106250000000001 16.15  C 0.318750000000001 12.85625  2.55 10.2  5.525 9.24375  C 4.25 8.39375  3.29375 6.90625  3.29375 5.20625  C 3.29375 2.65625  5.41875 0.53125  7.96875 0.53125  C 10.51875 0.53125  12.64375 2.65625  12.64375 5.20625  C 12.64375 6.90625  11.6875 8.39375  10.30625 9.24375  C 11.05 9.45625  11.6875 9.775  12.21875 10.2  L 11.475 10.94375  Z M 4.35625 5.20625  C 4.35625 7.225  5.95 8.925  7.96875 8.925  C 9.9875 8.925  11.58125 7.33125  11.58125 5.3125  C 11.58125 3.29375  9.9875 1.59375  7.96875 1.59375  C 5.95 1.59375  4.35625 3.1875  4.35625 5.20625  Z " fill-rule="nonzero" fill="#ffffff" stroke="none" transform="matrix(1 0 0 1 896 17 )" />
  </g>
</svg>