<?xml version="1.0" encoding="utf-8"?>
<svg version="1.1" xmlns:xlink="http://www.w3.org/1999/xlink" width="23px" height="25px" xmlns="http://www.w3.org/2000/svg">
  <g transform="matrix(1 0 0 1 -1246 -45 )">
    <path d="M 7.650375 11.2609375  L 9.754875 13.546875  L 14.878125 7.98125  C 15.1477923233532 7.68792604810222  15.5136541861247 7.5231209305067  15.89515625 7.5231209305067  C 16.6892264274649 7.5231209305067  17.3329474939338 8.22281774188597  17.3329474939338 9.0859375  C 17.3329474939338 9.50023079999178  17.1816058486834 9.89757186413277  16.9121875 10.190625  L 10.812875 16.81875  C 10.4329953109158 17.2316191098235  9.87330389483976 17.3803963157757  9.361 17.2046875  C 9.09743378656302 17.1384907590351  8.85662678804475 16.9921727070054  8.6666875 16.7828125  L 5.61775 13.4703125  C 5.34820716616995 13.1773311588804  5.19677957889069 12.7799631861336  5.19677957889069 12.365625  C 5.19677957889069 11.502810392912  5.84027306147908 10.803360955316  6.6340625 10.803360955316  C 7.01525363124294 10.803360955316  7.38083216616995 10.9679561588804  7.650375 11.2609375  Z M 11.5 25  C 5.14872537694588 25  0 19.4035593728849  0 12.5  C 0 5.59644062711508  5.14872537694588 0  11.5 0  C 17.8512746230541 0  23 5.59644062711508  23 12.5  C 23 19.4035593728849  17.8512746230541 25  11.5 25  Z M 11.5000001285225 21.875  C 16.2634560958131 21.875  20.1250001285225 17.6776695296637  20.1250001285225 12.5  C 20.1250001285225 7.32233047033631  16.2634560958131 3.125  11.5000001285225 3.125  C 6.73654416123192 3.125  2.87500012852251 7.32233047033631  2.87500012852251 12.5  C 2.87500012852251 17.6776695296637  6.73654416123192 21.875  11.5000001285225 21.875  Z " fill-rule="nonzero" fill="#409eff" stroke="none" transform="matrix(1 0 0 1 1246 45 )" />
  </g>
</svg>