<?xml version="1.0" encoding="utf-8"?>
<svg version="1.1" xmlns:xlink="http://www.w3.org/1999/xlink" width="30px" height="36px" xmlns="http://www.w3.org/2000/svg">
  <g transform="matrix(1 0 0 1 -1210 -6 )">
    <path d="M 1211 29.2  C 1211 29.2  1211 11  1211 11  C 1211 8.79086100067683  1212.79086100068 7  1215 7  C 1215 7  1235 7  1235 7  C 1237.20913899932 7  1239 8.79086100067683  1239 11  C 1239 11  1239 29.2  1239 29.2  C 1239 31.4091389993232  1237.20913899932 33.2  1235 33.2  C 1235 33.2  1232.59249216079 33.2  1232.59249216079 33.2  C 1232.59249216079 33.2  1225.4778047402 40.5572190122897  1225.4778047402 40.5572190122897  C 1225.4778047402 40.5572190122897  1218.44399406023 33.2  1218.44399406023 33.2  C 1218.44399406023 33.2  1215 33.2  1215 33.2  C 1212.79086100068 33.2  1211 31.4091389993232  1211 29.2  Z " fill-rule="nonzero" fill="#333333" stroke="none" fill-opacity="0.8" />
  </g>
</svg>