<?xml version="1.0" encoding="utf-8"?>
<svg version="1.1" xmlns:xlink="http://www.w3.org/1999/xlink" width="34px" height="34px" xmlns="http://www.w3.org/2000/svg">
  <g transform="matrix(1 0 0 1 -25 -3 )">
    <path d="M 34 17  C 34 7.61115925287652  26.3888407471235 0  17 0  C 7.61115925287651 0  0 7.61115925287652  0 17  C 0 26.3888407471235  7.61115925287651 34  17 34  C 26.3888407471235 34  34 26.3888407471235  34 17  Z M 26.916677734375 27  L 7.083322265625 27  C 7.083322265625 22.1481701183181  11.5231701183181 17.708322265625  17 17.708322265625  C 13.8703803051963 17.708322265625  11.3333222657223 15.171264226151  11.3333222657223 12.04164453125  C 11.3333222657223 8.91202483634898  13.8703803051963 6.374966796875  17.0000000000973 6.374966796875  C 20.1296196949983 6.374966796875  22.6666777344723 8.91202483634898  22.6666777344723 12.04164453125  C 22.6666593968714 15.1712844626413  20.12960672832 17.7083222656787  17 17.708322265625  C 22.4768298816819 17.708322265625  26.916677734375 22.1481701183181  26.916677734375 27.625  C 26.916677734375 27.625  26.916677734375 27.625  26.916677734375 27  Z " fill-rule="nonzero" fill="#166cad" stroke="none" fill-opacity="0.996078431372549" transform="matrix(1 0 0 1 25 3 )" />
  </g>
</svg>