<?xml version="1.0" encoding="utf-8"?>
<svg version="1.1" xmlns:xlink="http://www.w3.org/1999/xlink" width="18px" height="17px" xmlns="http://www.w3.org/2000/svg">
  <g transform="matrix(1 0 0 1 -1559 -406 )">
    <path d="M 15.948 11.4343125  L 15.9491875 11.4343125  L 15.9491875 7.699625  L 9.6875 7.699625  L 9.6875 5.566875  L 11.594625 5.566875  C 12.425875 5.566875  13.100375 4.906625  13.100375 4.094375  L 13.100375 1.66  C 13.100375 0.84775  12.425875 0.1875  11.594625 0.1875  L 6.5916875 0.1875  C 5.7604375 0.1875  5.0859375 0.84775  5.0859375 1.66  L 5.0859375 4.092  C 5.0859375 4.9054375  5.7604375 5.5645  6.5916875 5.5645  L 8.440625 5.5645  L 8.440625 7.69725  L 2.30125 7.69725  L 2.30125 11.433125  L 1.695625 11.433125  C 0.864375000000001 11.433125  0.188687500000001 12.093375  0.188687500000001 12.905625  L 0.188687500000001 15.337625  C 0.188687500000001 16.149875  0.864375000000001 16.810125  1.695625 16.810125  L 4.18225 16.810125  C 5.0135 16.810125  5.688 16.149875  5.688 15.337625  L 5.688 12.9091875  C 5.688 12.0969375  5.0135 11.4366875  4.18225 11.4366875  L 3.453125 11.4366875  L 3.453125 8.9144375  L 8.435875 8.9144375  L 8.435875 11.4343125  L 7.8480625 11.4343125  C 7.0168125 11.4343125  6.341125 12.0945625  6.341125 12.9068125  L 6.341125 15.3388125  C 6.341125 16.15225  7.018 16.8125  7.84925 16.8125  L 10.3346875 16.8125  C 11.1659375 16.8125  11.841625 16.15225  11.841625 15.34  L 11.841625 12.9091875  C 11.841625 12.0969375  11.1659375 11.4366875  10.3346875 11.4366875  L 9.6875 11.4366875  L 9.6875 8.9144375  L 14.7355625 8.9144375  L 14.7355625 11.4343125  L 14.00525 11.4343125  C 13.174 11.4343125  12.4995 12.0945625  12.4995 12.9068125  L 12.4995 15.3388125  C 12.4995 16.15225  13.174 16.8125  14.00525 16.8125  L 16.491875 16.8125  C 17.323125 16.8125  17.9988125 16.15225  17.9988125 15.34  L 17.9988125 12.9091875  C 18.0011875 12.0945625  17.323125 11.4343125  16.491875 11.4343125  L 15.948 11.4343125  Z M 6.36128890065475 4.3569168393016  C 6.30183670701022 4.3569168393016  6.25329815912625 4.30937685123865  6.2520625 4.2499375  L 6.2520625 1.4759375  C 6.2520625 1.415375  6.3019375 1.3666875  6.3636875 1.3666875  L 11.8143125 1.3666875  C 11.8760625 1.3666875  11.9259375 1.4141875  11.9259375 1.4759375  L 11.9259375 4.2475625  C 11.9259375 4.3069375  11.8760625 4.3568125  11.8143125 4.3568125  L 6.3660625 4.3568125  C 6.36447225033377 4.3568820512283  6.36288067054212 4.3569168393016  6.36128890065475 4.3569168393016  Z M 4.4613125 12.691875  L 4.4625 12.691875  L 4.4625 15.5905625  C 4.4625 15.6499375  4.412625 15.6998125  4.350875 15.6998125  L 1.481875 15.6998125  C 1.4814770760674 15.6998168017587  1.48107913179004 15.6998189526851  1.48068118460602 15.6998189526851  C 1.420148964871 15.6998189526851  1.37089734728312 15.651091258186  1.37025 15.5905625  L 1.37025 12.6930625  C 1.37025 12.6325  1.420125 12.582625  1.481875 12.582625  L 4.3473125 12.582625  C 4.34929260508386 12.5825158829139  4.3512753386844 12.5824612933587  4.35325844803126 12.5824612933587  C 4.41293971880985 12.5824612933587  4.46132094803126 12.6308425225801  4.46132094803126 12.6905237933587  C 4.46132094803126 12.6909742087771  4.4613181319658 12.6914246197939  4.4613125 12.691875  Z M 10.677875 15.5905625  L 10.6790625 15.5905625  C 10.6790625 15.6499375  10.6291875 15.6998125  10.5674375 15.6998125  L 7.633125 15.6998125  C 7.6327270760674 15.6998168017587  7.63232913179004 15.6998189526851  7.63193118460602 15.6998189526851  C 7.571398964871 15.6998189526851  7.52214734728312 15.651091258186  7.5215 15.5905625  L 7.5215 12.6930625  C 7.5215 12.6325  7.571375 12.582625  7.633125 12.582625  L 10.563875 12.582625  C 10.5658551050839 12.5825158829139  10.5678378386844 12.5824612933587  10.5698209480313 12.5824612933587  C 10.6295022188099 12.5824612933587  10.6778834480313 12.6308425225801  10.6778834480313 12.6905237933587  C 10.6778834480313 12.6909742087771  10.6778806319658 12.6914246197938  10.677875 12.691875  L 10.677875 15.5905625  Z M 16.6914027499724 15.6998728206243  C 16.6902057466283 15.6998728206243  16.6890088277512 15.699852710912  16.6878125 15.6998125  L 13.8496875 15.6998125  C 13.8488939114855 15.6998296143146  13.8481001615182 15.6998381722178  13.8473063884838 15.6998381722178  C 13.7867666790423 15.6998381722178  13.7375118916025 15.6510988592261  13.736875 15.5905625  L 13.736875 12.6930625  C 13.736875 12.6325  13.78675 12.582625  13.8485 12.582625  L 16.686625 12.582625  C 16.748375 12.582625  16.79825 12.6325  16.79825 12.691875  L 16.79825 15.5905625  C 16.7982684993811 15.5913741417944  16.7982777499724 15.5921859680333  16.7982777499724 15.5929978206243  C 16.7982777499724 15.6520232532625  16.7504281826106 15.6998728206243  16.6914027499724 15.6998728206243  Z " fill-rule="nonzero" fill="#ffffff" stroke="none" transform="matrix(1 0 0 1 1559 406 )" />
  </g>
</svg>