<?xml version="1.0" encoding="utf-8"?>
<svg version="1.1" xmlns:xlink="http://www.w3.org/1999/xlink" width="18px" height="22px" xmlns="http://www.w3.org/2000/svg">
  <defs>
    <filter x="807px" y="105px" width="18px" height="22px" filterUnits="userSpaceOnUse" id="filter173">
      <feOffset dx="0" dy="0" in="SourceAlpha" result="shadowOffsetInner" />
      <feGaussianBlur stdDeviation="2" in="shadowOffsetInner" result="shadowGaussian" />
      <feComposite in2="shadowGaussian" operator="atop" in="SourceAlpha" result="shadowComposite" />
      <feColorMatrix type="matrix" values="0 0 0 0 0  0 0 0 0 0  0 0 0 0 0  0 0 0 0.149019607843137 0  " in="shadowComposite" />
    </filter>
    <g id="widget174">
      <path d="M 816 110  C 818.24 110  820 112.64  820 116  C 820 119.36  818.24 122  816 122  C 813.76 122  812 119.36  812 116  C 812 112.64  813.76 110  816 110  Z " fill-rule="nonzero" fill="#1890ff" stroke="none" />
      <path d="M 816 110  C 818.24 110  820 112.64  820 116  C 820 119.36  818.24 122  816 122  C 813.76 122  812 119.36  812 116  C 812 112.64  813.76 110  816 110  Z " stroke-width="2" stroke="#ffffff" fill="none" />
    </g>
  </defs>
  <g transform="matrix(1 0 0 1 -807 -105 )">
    <use xlink:href="#widget174" filter="url(#filter173)" />
    <use xlink:href="#widget174" />
  </g>
</svg>