<?xml version="1.0" encoding="utf-8"?>
<svg version="1.1" xmlns:xlink="http://www.w3.org/1999/xlink" width="139px" height="40px" xmlns="http://www.w3.org/2000/svg">
  <g transform="matrix(1 0 0 1 -326 -2435 )">
    <path d="M 327 2440  A 4 4 0 0 1 331 2436 L 460 2436  A 4 4 0 0 1 464 2440 L 464 2470  A 4 4 0 0 1 460 2474 L 331 2474  A 4 4 0 0 1 327 2470 L 327 2440  Z " fill-rule="nonzero" fill="#f0f7ff" stroke="none" />
    <path d="M 326.5 2440  A 4.5 4.5 0 0 1 331 2435.5 L 460 2435.5  A 4.5 4.5 0 0 1 464.5 2440 L 464.5 2470  A 4.5 4.5 0 0 1 460 2474.5 L 331 2474.5  A 4.5 4.5 0 0 1 326.5 2470 L 326.5 2440  Z " stroke-width="1" stroke="#7abbff" fill="none" stroke-opacity="0.996078431372549" />
  </g>
</svg>