<?xml version="1.0" encoding="utf-8"?>
<svg version="1.1" xmlns:xlink="http://www.w3.org/1999/xlink" width="13px" height="13px" xmlns="http://www.w3.org/2000/svg">
  <g transform="matrix(1 0 0 1 -1811 -217 )">
    <path d="M 13 6.5  C 13 10.0898508739002  10.0898508739002 13  6.5 13  C 2.91014912609984 13  0 10.0898508739002  0 6.5  C 0 2.91014912609984  2.91014912609984 0  6.5 0  C 10.0898508739002 0  13 2.91014912609984  13 6.5  Z M 12.59375 6.5  C 12.59375 3.1345148057186  9.8654851942814 0.406250000000001  6.5 0.40625  C 3.1345148057186 0.40625  0.406249999999999 3.1345148057186  0.406249999999999 6.5  C 0.406249999999999 9.8654851942814  3.1345148057186 12.59375  6.5 12.59375  C 9.86548519428139 12.59375  12.59375 9.8654851942814  12.59375 6.5  Z M 8.9375 8.7319375  C 8.545265625 7.7935  7.753484375 7.105515625  6.703125 7.1045  L 6.703125 7.914765625  C 6.70252454223036 8.1387052230354  6.52081686342341 8.31992633532474  6.29687646037431 8.31992633532474  C 6.21670525567581 8.31992633532474  6.13832635462794 8.29620522120216  6.071609375 8.25175  L 3.634109375 6.631421875  C 3.52109066490591 6.55650303708371  3.45313799500563 6.42993114798347  3.45313799500563 6.2943359375  C 3.45313799500563 6.15874072701652  3.52109066490591 6.03216883791628  3.634109375 5.95725  L 6.071609375 4.336921875  C 6.13832635462794 4.29246665379784  6.21670525567582 4.26874553967526  6.29687646037431 4.26874553967526  C 6.52081686342341 4.26874553967526  6.70252454223036 4.4499666519646  6.703125 4.67390625  L 6.703125 5.484375  C 8.04733331895607 5.48246648688468  9.13860717984849 6.57055746568283  9.140625 7.914765625  C 9.15492721916445 8.20122174831276  9.08425982273599 8.48551668414447  8.9375 8.7319375  Z M 8.9415625 8.26190625  C 8.9415625 6.41875  7.515625 5.890625  6.296875 5.890625  L 6.296875 4.74175  C 6.19792156170827 4.73630303054809  6.0992286768364 4.75637734518893  6.010265625 4.800046875  L 4.103125 6.05596875  C 4.01209573589571 6.1065771529017  3.95536129993603 6.20227285678444  3.954640625 6.306421875  C 3.9550940105191 6.41708965620873  4.01080979575314 6.52021340097161  4.103125 6.58125  L 6.010265625 7.754703125  C 6.09910303590779 7.80002102358739  6.19715697289584 7.82434340342142  6.296875 7.825796875  L 6.296875 6.703125  C 8.626109375 6.703125  8.9415625 8.26190625  8.9415625 8.26190625  Z " fill-rule="nonzero" fill="#333333" stroke="none" transform="matrix(1 0 0 1 1811 217 )" />
  </g>
</svg>