<?xml version="1.0" encoding="utf-8"?>
<svg version="1.1" xmlns:xlink="http://www.w3.org/1999/xlink" width="19px" height="16px" xmlns="http://www.w3.org/2000/svg">
  <g transform="matrix(1 0 0 1 -1694 -590 )">
    <path d="M 18.0134028227848 10.1444527136076  C 18.0134028227848 7.73823581170886  16.3600599873418 5.72466518512658  14.1290237278481 5.1608654113924  C 13.8871938987342 2.66202426898734  11.7828112357595 0.708860759493671  9.22114668987342 0.708860759493671  C 6.69089383860759 0.708860759493671  4.60845909968354 2.6151080664557  4.32454564082278 5.06944930696203  C 1.8740301835443 5.46290101107595  0 7.58258680696203  0 10.1444527136076  C 0 12.9868090174051  2.30433022310127 15.2911392405063  5.14668652689873 15.2911392405063  L 13.2956068528481 15.2911392405063  L 13.2956068528481 15.2689899699367  C 15.9368074462025 15.0511216297468  18.0134028370253 12.8420332943038  18.0134028227848 10.1444527136076  Z M 13.8191352151899 9.28667162816456  L 9.0067014113924 14.4333581550633  L 4.19426762183544 9.28667162816456  L 7.67291223417721 9.28667162816456  L 7.67291223417721 4.56887565822785  L 10.2462554905063 4.56887565822785  L 10.2462554905063 9.28667162816456  L 13.8191352151899 9.28667162816456  Z " fill-rule="nonzero" fill="#000000" stroke="none" transform="matrix(1 0 0 1 1694 590 )" />
  </g>
</svg>