<?xml version="1.0" encoding="utf-8"?>
<svg version="1.1" xmlns:xlink="http://www.w3.org/1999/xlink" width="13px" height="14px" xmlns="http://www.w3.org/2000/svg">
  <g transform="matrix(1 0 0 1 -368 -456 )">
    <path d="M 11.9354275173611 3.7305078125  C 12.1386935763889 3.49439453125  12.2348958333333 3.19812500000001  12.2069661458333 2.8943359375  C 12.1790364583333 2.590546875  12.0316297743056 2.31533203125  11.7895724826389 2.1183203125  L 9.83914930555556 0.53169921875  C 9.34106987847222 0.1271484375  8.59627821180556 0.1903125  8.17733289930556 0.67306640625  L 2.11969401041667 7.6707421875  C 2.11969401041667 7.6707421875  2.11969401041667 7.67224609375  2.11814236111111 7.67224609375  C 2.11193576388889 7.679765625  2.10572916666667 7.68728515625  2.09952256944444 7.69630859375  C 2.09797092013889 7.69931640625  2.09486762152778 7.70232421875  2.09331597222222 7.703828125  L 2.07935112847222 7.721875  C 2.07779947916667 7.7248828125  2.07624782986111 7.727890625  2.07314453125 7.7308984375  C 2.06848958333333 7.73841796875  2.06383463541667 7.7459375  2.0591796875 7.7549609375  C 2.0591796875 7.75646484375  2.05762803819444 7.75796875  2.05762803819444 7.75796875  L 2.04366319444444 7.7850390625  L 2.03900824652778 7.7940625  C 2.03590494791667 7.80158203125  2.03280164930555 7.80759765625  2.02969835069444 7.8151171875  L 2.02504340277778 7.824140625  L 2.01573350694444 7.8512109375  C 2.01573350694444 7.85271484375  2.01573350694444 7.85271484375  2.01418185763889 7.85421875  C 2.01107855902778 7.86474609375  2.00797526041667 7.8752734375  2.00487196180556 7.884296875  C 2.0033203125 7.8873046875  2.0033203125 7.8903125  2.0033203125 7.8933203125  C 2.00176866319444 7.90083984375  2.00021701388889 7.90986328125  1.99866536458333 7.9173828125  C 1.99866536458333 7.91888671875  1.99711371527778 7.920390625  1.99711371527778 7.9233984375  L 1.34542100694444 11.52224609375  C 1.31128472222222 11.71173828125  1.38421223958333 11.9057421875  1.53627387152778 12.03056640625  C 1.63868272569444 12.11328125  1.76591796875 12.1583984375  1.89625651041667 12.1583984375  C 1.95987413194444 12.1583984375  2.02349175347222 12.14787109375  2.08555772569444 12.12681640625  L 5.63883463541667 10.8891015625  C 5.64038628472222 10.8891015625  5.64038628472222 10.88759765625  5.64193793402778 10.88759765625  C 5.65124782986111 10.88458984375  5.662109375 10.880078125  5.67141927083333 10.87556640625  C 5.67297092013889 10.87556640625  5.67297092013889 10.8740625  5.67452256944444 10.8740625  C 5.70710720486111 10.86052734375  5.73814019097222 10.84248046875  5.76917317708333 10.8229296875  C 5.77072482638889 10.8229296875  5.77072482638889 10.82142578125  5.77227647569444 10.82142578125  C 5.78003472222222 10.81541015625  5.78934461805556 10.80939453125  5.79710286458333 10.80337890625  C 5.79865451388889 10.801875  5.80020616319444 10.80037109375  5.80330946180555 10.7988671875  C 5.81106770833333 10.7928515625  5.81727430555555 10.78833984375  5.82348090277778 10.78232421875  C 5.82503255208333 10.7808203125  5.82813585069444 10.77931640625  5.8296875 10.77630859375  L 5.84830729166667 10.75826171875  L 5.85451388888889 10.75224609375  C 5.86072048611111 10.74623046875  5.86692708333333 10.7387109375  5.87313368055555 10.7326953125  L 5.87778862847222 10.72818359375  L 11.9354275173611 3.7305078125  Z M 3.33308376736111 7.9534765625  L 7.6171875 3.00412109375  L 9.66381293402778 4.6689453125  L 5.38126085069444 9.616796875  L 4.35717230902778 8.78513671875  L 3.33308376736111 7.9534765625  Z M 4.34631076388889 10.18828125  L 2.61156684027778 10.79134765625  L 2.92965494791667 9.0362890625  L 4.34631076388889 10.18828125  Z M 11.09443359375 2.987578125  C 11.0959852430556 3.005625  11.0913302951389 3.0206640625  11.08046875 3.0326953125  L 10.3822265625 3.8387890625  L 8.33560112847222 2.17396484375  L 9.03384331597222 1.36787109375  C 9.04470486111111 1.35583984375  9.05866970486111 1.3483203125  9.07573784722222 1.34681640625  C 9.09280598958333 1.3453125  9.10832248263889 1.34982421875  9.12073567708333 1.3603515625  L 11.0727105034722 2.94697265625  C 11.0851236979167 2.9575  11.0928819444444 2.97103515625  11.09443359375 2.987578125  Z M 11.8687065972222 13.178046875  C 11.8687065972222 12.87876953125  11.6173394097222 12.636640625  11.3101128472222 12.636640625  L 1.92418619791667 12.636640625  C 1.61540798611111 12.636640625  1.36559244791667 12.87876953125  1.36559244791667 13.178046875  C 1.36559244791667 13.47732421875  1.61540798611111 13.719453125  1.92418619791667 13.719453125  L 11.3101128472222 13.719453125  C 11.6188910590278 13.719453125  11.8687065972222 13.47732421875  11.8687065972222 13.178046875  Z " fill-rule="nonzero" fill="#ffffff" stroke="none" transform="matrix(1 0 0 1 368 456 )" />
  </g>
</svg>