<?xml version="1.0" encoding="utf-8"?>
<svg version="1.1" xmlns:xlink="http://www.w3.org/1999/xlink" width="70px" height="35px" xmlns="http://www.w3.org/2000/svg">
  <g transform="matrix(1 0 0 1 -1761 -261 )">
    <path d="M 1762 266  A 4 4 0 0 1 1766 262 L 1826 262  A 4 4 0 0 1 1830 266 L 1830 291  A 4 4 0 0 1 1826 295 L 1766 295  A 4 4 0 0 1 1762 291 L 1762 266  Z " fill-rule="nonzero" fill="#f0f7ff" stroke="none" />
    <path d="M 1761.5 266  A 4.5 4.5 0 0 1 1766 261.5 L 1826 261.5  A 4.5 4.5 0 0 1 1830.5 266 L 1830.5 291  A 4.5 4.5 0 0 1 1826 295.5 L 1766 295.5  A 4.5 4.5 0 0 1 1761.5 291 L 1761.5 266  Z " stroke-width="1" stroke="#7abbff" fill="none" stroke-opacity="0.996078431372549" />
  </g>
</svg>