<?xml version="1.0" encoding="utf-8"?>
<svg version="1.1" xmlns:xlink="http://www.w3.org/1999/xlink" width="11px" height="12px" xmlns="http://www.w3.org/2000/svg">
  <g transform="matrix(1 0 0 1 -576 -373 )">
    <path d="M 8.014285709375 5.402857140625  C 7.84071050499744 5.402857140625  7.7 5.53077578153176  7.7 5.688571421875  L 7.7 10.068571421875  C 7.7 10.6997540075024  7.13715797231515 11.211428578125  6.4428571453125 11.211428578125  L 4.5571428546875 11.211428578125  C 3.86284202768484 11.211428578125  3.3 10.6997540075024  3.3 10.0685714375  L 3.3 5.688571421875  C 3.3 5.53077578153176  3.15928949500256 5.402857140625  2.985714290625 5.402857140625  L 1.5148571453125 5.402857140625  C 1.16873420825359 5.4015433628709  0.888910139805127 5.14609350143182  0.888910139805127 4.8314335432495  C 0.888910139805127 4.69651896521395  0.94141967087891 4.5659555192025  1.0371428546875 4.462857140625  L 5.022285709375 0.2  C 5.14160933706397 0.0769997514979289  5.31331391591727 0.00653590374276945  5.49371428203125 0.00653590374276945  C 5.67411464814523 0.00653590374276945  5.84581922699853 0.0769997514979287  5.9651428546875 0.2  L 9.9628571453125 4.462857140625  C 10.0585803291211 4.5659555192025  10.1110898601949 4.69651896521395  10.1110898601949 4.8314335432495  C 10.1110898601949 5.14609350143182  9.83126579174641 5.4015433628709  9.4851428546875 5.402857140625  L 8.014285709375 5.402857140625  Z " fill-rule="nonzero" fill="#ffffff" stroke="none" transform="matrix(1 0 0 1 576 373 )" />
  </g>
</svg>