<?xml version="1.0" encoding="utf-8"?>
<svg version="1.1" xmlns:xlink="http://www.w3.org/1999/xlink" width="17px" height="6px" xmlns="http://www.w3.org/2000/svg">
  <g transform="matrix(1 0 0 1 -573 -383 )">
    <path d="M 14.5714285761719 0.571428578124999  C 13.9007970955443 0.571428578124999  13.3571428642578 1.08310314874759  13.3571428642578 1.71428571875  L 13.3571428642578 2.571428578125  C 13.3571428642578 2.72922421846824  13.2212293082944 2.857142859375  13.0535714404297 2.857142859375  L 3.94642857617188 2.857142859375  C 3.77877069170562 2.857142859375  3.64285713574219 2.72922421846824  3.64285713574219 2.571428578125  L 3.64285713574219 1.71428571875  C 3.64285713574219 1.08310314874759  3.09920290445569 0.571428578124999  2.42857142382812 0.571428578124999  L 1.21428571191406 0.571428578124999  C 0.543654231286498 0.571428578124999  0 1.08310314874759  0 1.71428571875  L 0 4.28571428125  C 0 5.23248814056835  0.815481350646133 6  1.82142857617187 6  L 15.1785714238281 6  C 16.1845186493539 6  17 5.23248814056835  17 4.28571428125  L 17 1.71428571875  C 17 1.08310314874759  16.4563457687135 0.571428578124999  15.7857142880859 0.571428578124999  L 14.5714285761719 0.571428578124999  Z " fill-rule="nonzero" fill="#ffffff" stroke="none" transform="matrix(1 0 0 1 573 383 )" />
  </g>
</svg>