<?xml version="1.0" encoding="utf-8"?>
<svg version="1.1" xmlns:xlink="http://www.w3.org/1999/xlink" width="120px" height="40px" xmlns="http://www.w3.org/2000/svg">
  <g transform="matrix(1 0 0 1 -141 -826 )">
    <path d="M 141.5 831  A 4.5 4.5 0 0 1 146 826.5 L 256 826.5  A 4.5 4.5 0 0 1 260.5 831 L 260.5 861  A 4.5 4.5 0 0 1 256 865.5 L 146 865.5  A 4.5 4.5 0 0 1 141.5 861 L 141.5 831  Z " fill-rule="nonzero" fill="#ffffff" stroke="none" />
    <path d="M 141.5 831  A 4.5 4.5 0 0 1 146 826.5 L 256 826.5  A 4.5 4.5 0 0 1 260.5 831 L 260.5 861  A 4.5 4.5 0 0 1 256 865.5 L 146 865.5  A 4.5 4.5 0 0 1 141.5 861 L 141.5 831  Z " stroke-width="1" stroke="#e4e4e4" fill="none" />
  </g>
</svg>