<?xml version="1.0" encoding="utf-8"?>
<svg version="1.1" xmlns:xlink="http://www.w3.org/1999/xlink" width="30px" height="30px" xmlns="http://www.w3.org/2000/svg">
  <g>
    <path d="M 30 0  L 9.9375 0  L 0 10.125  L 0 30  L 30 0  Z M 1.56249999023437 13.2500000097656  L 6.5625 8.31249999023438  L 7.93749999023438 9.68750000976562  L 7.5 10.0625000097656  L 7.37499999023437 9.9375  L 3.24999999023437 14.0625  L 3.375 14.1875000097656  L 2.93750000976562 14.625  L 1.56249999023437 13.2500000097656  Z M 12.6249999902344 13.3125  L 6.62499999023438 19.3125  L 6.24999999023437 18.9375  L 7.125 18.0624999902344  L 4.37499999023438 15.2499999902344  L 6.24999999023438 13.3749999902344  L 5.87499999023438 12.9999999902344  L 3.1875 15.6249999902344  L 2.87499999023437 15.3125000097656  L 5.49999999023437 12.6875000097656  L 5.18750000976562 12.375  L 5.625 11.9375000097656  L 5.93750000976562 12.2499999902344  L 8.625 9.5625  L 8.93750000976562 9.87500000976563  L 6.24999999023437 12.5625  L 6.62499999023438 12.9375  L 8.625 10.9374999902344  L 11.4375 13.7499999902344  L 12.2499999902344 12.9375  L 12.6249999902344 13.3125  Z M 13.5 10.9374999902344  C 13.9374999902344 11.3749999804688  13.9374999902344 11.8749999902344  13.4375000097656 12.375  L 12.9375 12.8750000097656  C 12.75 12.6875000097656  12.5000000097656 12.5625  12.3125000097656 12.4374999902344  C 12.5625 12.3124999804688  12.75 12.1249999804688  12.9375 11.9375000097656  C 13.125 11.7500000097656  13.125 11.5625000097656  12.9375 11.3750000097656  L 8.93750000976562 7.37499999023438  L 7.93749999023437 8.37500000976563  L 7.5 7.875  L 9.75 5.625  L 10.1874999902344 6.06249999023438  L 9.43749999023438 6.87500000976563  L 13.5 10.9374999902344  Z M 14.0625 9.375  L 11.0625 6.50000000976563  L 12.1875 5.37500000976563  L 11.5625000097656 4.37499999023438  L 10.1874999902344 5.75000000976563  L 9.75 5.31249999023438  L 13.3749999902344 1.6875  L 13.7499999902344 2.18750000976563  L 12 3.9375  L 12.6249999902344 4.93749999023438  L 14.3124999902344 3.24999999023438  L 17.1875000097656 6.12500000976563  L 16.7499999902344 6.5625  L 14.3124999902344 4.125  L 12 6.43749999023438  L 14.4999999902344 8.93750000976563  L 14.0625 9.375  Z M 15.6875000097656 8.56250000976563  C 15.8750000097656 9.25000001953125  15.6875000097656 10.1875000195312  15.1250000097656 11.25  C 14.9375000097656 11.1875000097656  14.6875000195312 11.1249999902344  14.3750000097656 11.1249999902344  C 14.9375000097656 10.125  15.1250000097656 9.31249998046875  15.0624999902344 8.625  C 15 8.00000000976563  14.5624999804688 7.3125  13.8125000097656 6.5625  L 13.125 5.87499999023438  L 13.5624999902344 5.4375  L 14.25 6.12500000976562  C 14.7500000097656 6.62500001953125  15.1250000097656 7.125  15.375 7.56249999023438  C 16.5 7.3125  17.5625000097656 7.125  18.5000000097656 6.99999999023438  L 18.5625 7.74999999023438  C 17.5625000097656 7.81249998046875  16.5624999902344 7.99999998046875  15.6249999902344 8.18750000976563  C 15.6874999804687 8.31250001953125  15.6874999804687 8.4375  15.6875000097656 8.56250000976563  Z " fill-rule="nonzero" fill="#fa8d14" stroke="none" />
  </g>
</svg>