<?xml version="1.0" encoding="utf-8"?>
<svg version="1.1" xmlns:xlink="http://www.w3.org/1999/xlink" width="9px" height="7px" xmlns="http://www.w3.org/2000/svg">
  <g transform="matrix(1 0 0 1 -2 -11 )">
    <path d="M 0.946249990234375 2.734375  L 0.371875 2.16000000976562  L 1.47625 1.05499999023437  L 2.05125000976563 1.62937500976563  L 0.946249990234375 2.734375  Z M 4.17499999023437 5.26062499023438  L 3.77749999023438 4.8625  L 7.18062499023437 1.45999999023438  L 7.57812499023437 1.85749999023438  L 4.17499999023437 5.26062499023438  Z M 4.85937499023437 5.95500000976563  L 4.46187499023438 5.55750000976563  L 7.86499999023437 2.15437500976563  L 8.26249999023437 2.5525  L 4.85937499023437 5.95500000976563  Z M 3.49062499023437 4.56562500976563  L 3.09312499023437 4.16812500976562  L 6.49624999023438 0.765000009765625  L 6.89374999023437 1.163125  L 3.49062499023437 4.56562500976563  Z M 5.58562500976562 6.60937500976563  L 5.18812500976563 6.21124999023438  L 8.59249999023437 2.80999999023438  L 8.98999999023437 3.20812500976563  L 5.58562500976562 6.60937500976563  Z " fill-rule="nonzero" fill="#fa8d14" stroke="none" transform="matrix(1 0 0 1 2 11 )" />
  </g>
</svg>