<?xml version="1.0" encoding="utf-8"?>
<svg version="1.1" xmlns:xlink="http://www.w3.org/1999/xlink" width="16px" height="8px" xmlns="http://www.w3.org/2000/svg">
  <g transform="matrix(1 0 0 1 -524 -24 )">
    <path d="M 0 1.01333333333333  C 0 0.463503182390677  0.47756293351382 0.0177777777777777  1.06666666666667 0  L 14.9333333333333 0  C 15.5224370664862 0.0177777777777777  16 0.463503182390677  16 1.01333333333333  L 16 6.98666666666667  C 16 7.53649681760932  15.5224370664862 7.98222222222222  14.9333333333333 8  L 1.06666666666667 8  C 0.47756293351382 7.98222222222222  0 7.53649681760932  0 6.98666666666667  L 0 1.01333333333333  Z M 4.688 1.93422222222222  L 4.30933333333333 1.93422222222222  L 4.30933333333333 3.74613333333333  L 4.688 3.74613333333333  L 4.688 1.93422222222222  Z M 3.664 2.15324444444444  L 3.296 2.15324444444444  L 3.296 3.62168888888889  L 3.664 3.62168888888889  L 3.664 2.15324444444444  Z M 5.01333333333333 2.44693333333333  L 5.248 2.44693333333333  C 5.36533333333333 2.7008  5.568 2.93475555555556  5.86133333333333 3.14382222222222  C 5.584 3.24337777777778  5.25866666666667 3.32302222222222  4.89066666666667 3.39271111111111  L 5.06666666666667 3.69137777777778  C 5.07733333333333 3.6864  5.088 3.6864  5.104 3.6864  C 4.70933333333333 3.93528888888889  4.33066666666667 4.12942222222222  3.968 4.27875555555555  C 3.89866666666667 4.29866666666667  3.78133333333333 4.3136  3.616 4.3136  L 3.68533333333333 4.62222222222222  L 5.14133333333333 4.55253333333333  C 4.608 4.77653333333333  4.096 4.9408  3.6 5.04533333333333  C 3.488 5.04533333333333  3.376 5.04035555555555  3.25866666666667 5.03537777777778  L 3.33866666666667 5.37386666666667  C 3.89333333333333 5.36391111111111  4.496 5.344  5.15733333333333 5.31413333333333  L 5.15733333333333 5.99111111111111  C 5.15733333333333 6.10062222222222  5.09866666666667 6.16035555555556  4.98666666666667 6.16035555555556  C 4.848 6.16035555555556  4.69866666666667 6.1504  4.544 6.13546666666667  L 4.624 6.47395555555555  L 5.11466666666667 6.47395555555555  C 5.40266666666667 6.47395555555555  5.552 6.33955555555556  5.552 6.07573333333333  L 5.552 5.29422222222222  C 5.99466666666667 5.26933333333333  6.464 5.24444444444444  6.96 5.21457777777778  C 7.06666666666667 5.32408888888889  7.168 5.4336  7.25866666666667 5.54311111111111  L 7.56266666666667 5.344  C 7.344 5.09013333333333  7.02933333333334 4.79146666666667  6.61333333333334 4.448  L 6.31466666666667 4.6272  C 6.45333333333333 4.74168888888889  6.58133333333334 4.85617777777778  6.704 4.97066666666667  C 5.92533333333334 5.02044444444444  5.152 5.05528888888889  4.384 5.0752  C 5.184 4.86613333333333  5.936 4.56248888888889  6.63466666666667 4.17422222222222  L 6.30933333333334 3.97511111111111  C 6.10666666666667 4.0896  5.904 4.19413333333333  5.70666666666667 4.29368888888889  C 5.296 4.3136  4.87466666666667 4.33848888888889  4.448 4.36337777777778  C 4.8 4.21404444444444  5.14133333333334 4.03982222222222  5.46666666666667 3.83573333333333  L 5.216 3.66151111111111  C 5.58933333333334 3.58186666666667  5.92 3.47733333333333  6.20266666666667 3.35786666666667  C 6.512 3.52711111111111  6.896 3.68142222222222  7.35466666666667 3.81582222222222  L 7.55733333333334 3.51217777777778  C 7.17333333333334 3.41262222222222  6.84266666666667 3.30311111111111  6.55466666666667 3.18364444444444  C 6.91733333333334 2.97457777777778  7.168 2.72071111111111  7.30133333333334 2.42204444444444  L 7.30133333333334 2.12337777777778  L 5.01333333333333 2.12337777777778  L 5.01333333333333 2.44693333333333  Z M 6.912 2.44693333333333  C 6.76266666666667 2.66097777777778  6.52266666666667 2.84515555555556  6.19733333333333 3.00444444444444  C 5.91466666666667 2.84017777777778  5.712 2.656  5.58933333333333 2.44693333333333  L 6.912 2.44693333333333  Z M 7.632 6.11057777777778  C 7.17333333333333 5.87164444444444  6.66666666666667 5.67253333333333  6.112 5.50328888888889  L 5.92 5.77208888888889  C 6.43733333333333 5.9264  6.93866666666667 6.14044444444444  7.42933333333333 6.40924444444444  L 7.632 6.11057777777778  Z M 4.67733333333333 5.75217777777778  L 4.448 5.50826666666667  C 4.064 5.73724444444444  3.57333333333333 5.92142222222222  2.976 6.06577777777778  L 3.14666666666667 6.38933333333333  C 3.76 6.22008888888889  4.272 6.00604444444444  4.67733333333333 5.75217777777778  Z M 8.896 4.8064  L 12.3253333333333 4.8064  L 12.3253333333333 3.06417777777778  L 11.264 3.06417777777778  C 11.4346666666667 2.91484444444444  11.6106666666667 2.73066666666667  11.7813333333333 2.51662222222222  L 11.7813333333333 2.26773333333333  L 10.0426666666667 2.26773333333333  C 10.1173333333333 2.1632  10.1973333333333 2.05368888888889  10.2773333333333 1.9392  L 9.888 1.85955555555556  C 9.46666666666667 2.45688888888889  8.928 2.94471111111111  8.272 3.31306666666667  L 8.51733333333334 3.58684444444444  C 8.66666666666667 3.49724444444444  8.82133333333333 3.39768888888889  8.97066666666667 3.28817777777778  L 8.97066666666667 3.38275555555556  L 11.9573333333333 3.38275555555556  L 11.9573333333333 3.78097777777778  L 9.11466666666667 3.78097777777778  L 9.11466666666667 4.0896  L 11.9573333333333 4.0896  L 11.9573333333333 4.48782222222222  L 8.896 4.48782222222222  L 8.896 4.8064  Z M 11.312 2.5664  C 11.136 2.75555555555556  10.96 2.91982222222222  10.784 3.06417777777778  L 9.264 3.06417777777778  C 9.44533333333333 2.90986666666667  9.62133333333333 2.7456  9.78666666666667 2.5664  L 11.312 2.5664  Z M 9.232 5.18968888888889  L 8.85866666666667 5.12  C 8.752 5.49831111111111  8.58666666666667 5.85173333333333  8.36266666666667 6.17031111111111  L 8.688 6.36444444444444  C 8.92266666666667 6.03093333333333  9.104 5.63768888888889  9.232 5.18968888888889  Z M 10.0853333333333 6.41422222222222  L 11.3546666666667 6.41422222222222  C 11.568 6.41422222222222  11.7226666666667 6.37937777777778  11.8186666666667 6.30968888888889  C 11.936 6.22506666666667  12.0106666666667 5.99111111111111  12.048 5.60782222222222  L 11.6853333333333 5.49831111111111  C 11.664 5.78702222222222  11.616 5.96124444444444  11.5466666666667 6.02097777777778  C 11.4986666666667 6.06577777777778  11.4133333333333 6.09066666666667  11.2853333333333 6.09066666666667  L 10.1973333333333 6.09066666666667  C 10.0586666666667 6.09066666666667  9.98933333333333 6.02097777777778  9.98933333333333 5.88657777777778  L 9.98933333333333 5.05528888888889  L 9.60533333333333 5.05528888888889  L 9.60533333333333 5.96124444444444  C 9.60533333333333 6.25991111111111  9.76533333333333 6.41422222222222  10.0853333333333 6.41422222222222  Z M 11.312 5.55804444444444  C 11.1733333333333 5.37884444444444  10.9706666666667 5.1648  10.704 4.92586666666667  L 10.3893333333333 5.10506666666667  C 10.6453333333333 5.344  10.848 5.56302222222222  10.992 5.76213333333333  L 11.312 5.55804444444444  Z M 13.0933333333333 6.07075555555555  C 12.912 5.77208888888889  12.6613333333333 5.41866666666667  12.3306666666667 5.01546666666667  L 12.0213333333333 5.19466666666667  C 12.3413333333333 5.59288888888889  12.592 5.95128888888889  12.7733333333333 6.27982222222222  L 13.0933333333333 6.07075555555555  Z " fill-rule="nonzero" fill="#ff0000" stroke="none" transform="matrix(1 0 0 1 524 24 )" />
  </g>
</svg>