<?xml version="1.0" encoding="utf-8"?>
<svg version="1.1" xmlns:xlink="http://www.w3.org/1999/xlink" width="40px" height="50px" xmlns="http://www.w3.org/2000/svg">
  <defs>
    <filter x="178px" y="36px" width="40px" height="50px" filterUnits="userSpaceOnUse" id="filter151">
      <feOffset dx="1" dy="1" in="SourceAlpha" result="shadowOffsetInner" />
      <feGaussianBlur stdDeviation="2.5" in="shadowOffsetInner" result="shadowGaussian" />
      <feComposite in2="shadowGaussian" operator="atop" in="SourceAlpha" result="shadowComposite" />
      <feColorMatrix type="matrix" values="0 0 0 0 0  0 0 0 0 0  0 0 0 0 0  0 0 0 0.698039215686274 0  " in="shadowComposite" />
    </filter>
    <g id="widget152">
      <path d="M 197 79.0369284683536  C 191.2 69.4073405959099  182.5 63.6295878724437  182.5 54  C 182.5 48.9857142857143  185.4 40.5  197 40.5  C 208.6 40.5  211.5 48.9857142857143  211.5 54  C 211.5 63.6295878724437  202.8 69.4073405959099  197 79.0369284683536  Z " fill-rule="nonzero" fill="#009dd9" stroke="none" />
      <path d="M 197 80  C 191 70  182 64  182 54  C 182 48.8  185 40  197 40  C 209 40  212 48.8  212 54  C 212 64  203 70  197 80  Z M 197 78.0738569367072  C 202.6 68.8146811918198  211 63.2591757448874  211 54  C 211 49.1714285714286  208.2 41  197 41  C 185.8 41  183 49.1714285714286  183 54  C 183 63.2591757448874  191.4 68.8146811918198  197 78.0738569367072  Z " fill-rule="nonzero" fill="#ffffff" stroke="none" />
    </g>
  </defs>
  <g transform="matrix(1 0 0 1 -178 -36 )">
    <use xlink:href="#widget152" filter="url(#filter151)" />
    <use xlink:href="#widget152" />
  </g>
</svg>