<?xml version="1.0" encoding="utf-8"?>
<svg version="1.1" xmlns:xlink="http://www.w3.org/1999/xlink" width="16px" height="13px" xmlns="http://www.w3.org/2000/svg">
  <g transform="matrix(1 0 0 1 -408 -554 )">
    <path d="M 416 556  C 419.36 556  422 557.98  422 560.5  C 422 563.02  419.36 565  416 565  C 412.64 565  410 563.02  410 560.5  C 410 557.98  412.64 556  416 556  Z " fill-rule="nonzero" fill="#409eff" stroke="none" />
    <path d="M 416 555.5  C 419.64 555.5  422.5 557.7  422.5 560.5  C 422.5 563.3  419.64 565.5  416 565.5  C 412.36 565.5  409.5 563.3  409.5 560.5  C 409.5 557.7  412.36 555.5  416 555.5  Z " stroke-width="3" stroke="#409eff" fill="none" />
  </g>
</svg>