<?xml version="1.0" encoding="utf-8"?>
<svg version="1.1" xmlns:xlink="http://www.w3.org/1999/xlink" width="15px" height="13px" xmlns="http://www.w3.org/2000/svg">
  <g transform="matrix(1 0 0 1 1032 -29 )">
    <path d="M 15 1.35416667089844  C 15 0.595833329101563  14.3125000048828 0  13.4374999951172 0  L 1.56250000488281 0  C 0.687499995117188 0  0 0.595833329101563  0 1.35416667089844  L 0 11.6458333291016  C 0 12.4041666708984  0.687499995117188 13  1.56250000488281 13  L 13.4374999951172 13  C 14.3124999902344 13  15 12.4041666708984  15 11.6458333291016  L 15 1.35416667089844  Z M 3.62500000488281 4.60416667089844  L 3.62500000488281 1.08333332910156  L 11.3749999951172 1.08333332910156  L 11.3749999951172 4.60416667089844  C 11.3749999951172 4.82083334179687  11.1874999951172 4.98333334179687  10.9375000048828 4.98333332910156  L 4.06249999511719 4.98333332910156  C 3.81249999023438 4.98333332910156  3.62499999023438 4.82083332910156  3.62500000488281 4.60416667089844  Z M 13.7500000048828 1.35416667089844  L 13.7500000048828 11.6458333291016  C 13.7500000048828 11.8083333291016  13.6250000097656 11.9166666582031  13.4374999951172 12  L 1.56250000488281 12  C 1.37500000488281 11.9166666708984  1.25000000976562 11.8083333417969  1.24999999511719 11.6458333291016  L 1.24999999511719 1.35416667089844  C 1.24999999511719 1.19166667089844  1.37499999023437 1.08333334179688  1.56250000488281 1.08333332910156  L 2.625 1.08333332910156  L 2.625 4.60416667089844  C 2.625 5.30833334179688  3.25000000488281 5.85  4.06249999511719 5.85  L 10.9375000048828 5.85  C 11.7500000097656 5.85  12.375 5.30833332910156  12.375 4.60416667089844  L 12.375 1.08333332910156  L 13.4374999951172 1.08333332910156  C 13.6249999951172 1.08333332910156  13.7499999902344 1.19166665820313  13.7500000048828 1.35416667089844  Z " fill-rule="nonzero" fill="#ffffff" stroke="none" transform="matrix(1 0 0 1 -1032 29 )" />
  </g>
</svg>