<?xml version="1.0" encoding="utf-8"?>
<svg version="1.1" xmlns:xlink="http://www.w3.org/1999/xlink" width="15px" height="14px" xmlns="http://www.w3.org/2000/svg">
  <g transform="matrix(1 0 0 1 459 -139 )">
    <path d="M 14.833333328125 2.33333333789063  C 14.8333333125 1.9833333515625  14.56666665625 1.75  14.166666671875 1.75  L 10.833333328125 1.75  L 10.833333328125 1.45833333789063  C 10.833333328125 0.641666662109375  10.1 0  9.166666671875 0  L 5.833333328125 0  C 4.9 0  4.166666671875 0.641666662109375  4.166666671875 1.45833333789063  L 4.166666671875 1.75  L 0.833333328125 1.75  C 0.433333328125 1.75  0.16666665625 1.98333333789062  0.166666671875 2.33333333789062  C 0.1666666875 2.68333333789063  0.43333334375 2.91666667578125  0.833333328125 2.91666666210937  L 1.5 2.91666666210937  L 1.5 12.5416666621094  C 1.5 13.3583333378906  2.233333328125 14  3.166666671875 14  L 11.833333328125 14  C 12.76666665625 14  13.5 13.3583333378906  13.5 12.5416666621094  L 13.5 2.91666666210938  L 14.166666671875 2.91666666210938  C 14.566666671875 2.91666666210938  14.83333334375 2.68333332421875  14.833333328125 2.33333333789063  Z M 5.5 1.75  L 5.5 1.45833333789063  C 5.5 1.28333333789063  5.633333328125 1.16666667578125  5.833333328125 1.16666666210938  L 9.166666671875 1.16666666210938  C 9.366666671875 1.16666666210938  9.5 1.28333332421875  9.5 1.45833333789063  L 9.5 1.75  L 5.5 1.75  Z M 12.166666671875 2.91666666210938  L 12.166666671875 12.5416666621094  C 12.166666671875 12.7166666621094  12.03333334375 12.8333333242187  11.833333328125 12.8333333378906  L 3.166666671875 12.8333333378906  C 2.966666671875 12.8333333378906  2.83333334375 12.7166666757812  2.833333328125 12.5416666621094  L 2.833333328125 2.91666666210938  L 12.166666671875 2.91666666210938  Z " fill-rule="nonzero" fill="#ffffff" stroke="none" transform="matrix(1 0 0 1 -459 139 )" />
  </g>
</svg>