<?xml version="1.0" encoding="utf-8"?>
<svg version="1.1" xmlns:xlink="http://www.w3.org/1999/xlink" width="14px" height="12px" xmlns="http://www.w3.org/2000/svg">
  <g transform="matrix(1 0 0 1 352 -139 )">
    <path d="M 13.7215909090909 4.60227272727273  C 13.907196969697 4.76136363636363  14 4.95454545454545  14 5.18181818181818  L 14 6.81818181818182  C 14 7.04545454545455  13.907196969697 7.23863636363636  13.7215909090909 7.39772727272727  C 13.5359848484848 7.55681818181818  13.3106060606061 7.63636363636364  13.0454545454545 7.63636363636364  L 8.90909090909091 7.63636363636364  L 8.90909090909091 11.1818181818182  C 8.90909090909091 11.4090909090909  8.81628787878788 11.6022727272727  8.63068181818182 11.7613636363636  C 8.44507575757576 11.9204545454545  8.21969696969697 12  7.95454545454546 12  L 6.04545454545455 12  C 5.78030303030303 12  5.55492424242424 11.9204545454545  5.36931818181818 11.7613636363636  C 5.18371212121212 11.6022727272727  5.09090909090909 11.4090909090909  5.09090909090909 11.1818181818182  L 5.09090909090909 7.63636363636364  L 0.954545454545454 7.63636363636364  C 0.689393939393939 7.63636363636364  0.464015151515152 7.55681818181818  0.278409090909091 7.39772727272727  C 0.0928030303030303 7.23863636363636  0 7.04545454545455  0 6.81818181818182  L 0 5.18181818181818  C 0 4.95454545454545  0.0928030303030303 4.76136363636363  0.278409090909091 4.60227272727273  C 0.464015151515152 4.44318181818182  0.689393939393939 4.36363636363636  0.954545454545454 4.36363636363636  L 5.09090909090909 4.36363636363636  L 5.09090909090909 0.818181818181819  C 5.09090909090909 0.59090909090909  5.18371212121212 0.397727272727272  5.36931818181818 0.238636363636364  C 5.55492424242424 0.0795454545454541  5.78030303030303 0  6.04545454545455 0  L 7.95454545454546 0  C 8.21969696969697 0  8.44507575757576 0.0795454545454541  8.63068181818182 0.238636363636364  C 8.81628787878788 0.397727272727272  8.90909090909091 0.59090909090909  8.90909090909091 0.818181818181819  L 8.90909090909091 4.36363636363636  L 13.0454545454545 4.36363636363636  C 13.3106060606061 4.36363636363636  13.5359848484848 4.44318181818182  13.7215909090909 4.60227272727273  Z " fill-rule="nonzero" fill="#ffffff" stroke="none" transform="matrix(1 0 0 1 -352 139 )" />
  </g>
</svg>