<?xml version="1.0" encoding="utf-8"?>
<svg version="1.1" xmlns:xlink="http://www.w3.org/1999/xlink" width="6px" height="6px" xmlns="http://www.w3.org/2000/svg">
  <g transform="matrix(1 0 0 1 455 -145 )">
    <path d="M 0.96 0.523076927884614  C 0.96 0.215384624999999  0.768 0.0307692403846144  0.511999995 0.0307692259615384  C 0.25599999 0.0307692259615384  0 0.215384610576923  0 0.523076927884615  L 0 5.44615384615384  C 0 5.69230769711538  0.192 5.93846153365384  0.511999995 5.93846153365384  C 0.83199999 5.93846153365384  0.96 5.69230768269231  0.96 5.44615384615384  L 0.96 0.523076927884614  Z M 3.391999995 0.523076927884614  C 3.391999995 0.215384624999999  3.13599999 0.0307692403846144  2.88 0.0307692259615384  C 2.623999995 0.0307692259615384  2.368000005 0.215384610576923  2.368000005 0.523076927884615  L 2.368000005 5.44615384615384  C 2.368000005 5.69230769711538  2.560000005 5.93846153365384  2.88 5.93846153365384  C 3.199999995 5.93846153365384  3.391999995 5.75384614903846  3.391999995 5.44615384615384  L 3.391999995 0.523076927884614  Z M 5.311999995 0.0307692259615375  C 4.991999985 0.0307692115384607  4.8 0.215384610576922  4.8 0.523076927884615  L 4.8 5.44615384615384  C 4.8 5.69230769711538  4.992 5.93846153365384  5.311999995 5.93846153365384  C 5.63199999 5.93846153365384  5.82399999 5.75384614903846  5.824000005 5.44615384615384  L 5.824000005 0.523076927884614  C 5.824000005 0.276923076923076  5.632000005 0.0307692403846144  5.311999995 0.0307692259615375  Z " fill-rule="nonzero" fill="#ffffff" stroke="none" transform="matrix(1 0 0 1 -455 145 )" />
  </g>
</svg>