<?xml version="1.0" encoding="utf-8"?>
<svg version="1.1" xmlns:xlink="http://www.w3.org/1999/xlink" width="15px" height="14px" xmlns="http://www.w3.org/2000/svg">
  <g transform="matrix(1 0 0 1 713 -403 )">
    <path d="M 14.7334054904514 13.7667727285156  C 15.0858585844494 13.4562272714844  15.0858585844494 12.9528636425781  14.7334054904514 12.642  L 12.5274170231895 10.6963181855469  C 13.730519484747 9.55913635742188  14.4733044704861 8.03822727148437  14.4733044704861 6.36363635742187  C 14.4733044704861 2.8544090859375  11.2370129898314 0  7.2582972625248 0  C 3.27994227430556 0  0.0432900390625 2.8544090859375  0.0432900390625 6.36363635742187  C 0.0432900390625 7.62522727148438  0.462842711433532 8.8464090859375  1.25721501426091 9.89418181445313  C 1.42316017175099 10.1140454570312  1.7590187562004 10.1716363574219  2.00757575334821 10.0259090859375  C 2.25613275049603 9.87954545703125  2.32287157428075 9.58331818554688  2.15692640128968 9.3640909140625  C 1.48232322668651 8.4735  1.12554112413194 7.43622727148438  1.12554112413194 6.36363635742187  C 1.12554112413194 3.381  3.87662337239583 0.95454545703125  7.2582972625248 0.95454545703125  C 10.6399711371528 0.95454545703125  13.3910533854167 3.381  13.3910533854167 6.36363635742187  C 13.3910533854167 9.34627272851562  10.6399711371528 11.7727272714844  7.2582972625248 11.7727272714844  C 6.03787878224206 11.7727272714844  4.85894661458333 11.4564545429687  3.84812410094246 10.8585909140625  C 3.60028859747024 10.7125454570312  3.26406925843254 10.7701363574219  3.09704185267857 10.9890454570312  C 2.93073592509921 11.2079545429687  2.99711399429563 11.5045  3.24494949776786 11.6515  C 4.43470417906746 12.3553181855469  5.82251081969246 12.7272727285156  7.2582972625248 12.7272727285156  C 8.68686869109623 12.7272727285156  10.0162337704613 12.3543636425781  11.137806640625 11.7202272714844  L 13.4581529637897 13.7667727285156  C 13.634199141245 13.9220454570312  13.8650793650794 14  14.0955988498264 14  C 14.3264790736607 14  14.557359312996 13.9220454570312  14.7334054904514 13.7667727285156  Z M 2.99639250062004 5.7818409140625  C 3.23737374441964 5.7818409140625  3.4570707000248 5.63897727148438  3.51984126984127 5.42356818554688  C 3.9220779234871 4.04775  5.21500720796131 3.04452272851562  6.81385281808036 2.86793181445313  C 7.11038961743552 2.8351590859375  7.32070707775298 2.59652272851562  7.28354978918651 2.33497727148438  C 7.24639250062004 2.07343181445312  6.9736652250744 1.88761364257812  6.67929292224702 1.92070454296875  C 4.63708513144841 2.14629545703125  2.98593074156746 3.42793181445313  2.47222222222222 5.18556818554688  C 2.39754689050099 5.44075  2.57142857142857 5.70102272851562  2.86111111111111 5.76656818554688  C 2.90620490761409 5.77706818554687  2.95165945870536 5.7818409140625  2.99639250062004 5.7818409140625  Z " fill-rule="nonzero" fill="#ffffff" stroke="none" transform="matrix(1 0 0 1 -713 403 )" />
  </g>
</svg>