<?xml version="1.0" encoding="utf-8"?>
<svg version="1.1" xmlns:xlink="http://www.w3.org/1999/xlink" width="28px" height="23px" xmlns="http://www.w3.org/2000/svg">
  <g transform="matrix(1 0 0 1 -6 0 )">
    <path d="M 27.0201042341772 14.7166790704114  C 27.0201042341772 11.1073537175633  24.5400899810127 8.08699777768987  21.1935355917722 7.24129811708861  C 20.8307908481013 3.49303640348101  17.6742168536392 0.563291139240507  13.8317200348101 0.563291139240507  C 10.0363407579114 0.563291139240507  6.91268864952532 3.42266209968354  6.48681846123418 7.10417396044304  C 2.81104527531646 7.69435151661392  0 10.873880210443  0 14.7166790704114  C 0 18.9802135261076  3.4564953346519 22.4367088607595  7.7200297903481 22  L 19.9434102792722 22  L 19.9434102792722 22.4034849549051  C 23.9052111693038 22.0766824446203  27.020104255538 18.7630499414557  27.0201042341772 14.7166790704114  Z M 20.7287028227848 13.4300074422468  L 13.5100521170886 21.1500372325949  L 6.29140143275316 13.4300074422468  L 11.5093683512658 13.4300074422468  L 11.5093683512658 6.35331348734177  L 15.3693832357595 6.35331348734177  L 15.3693832357595 13.4300074422468  L 20.7287028227848 13.4300074422468  Z " fill-rule="nonzero" fill="#aaaaaa" stroke="none" transform="matrix(1 0 0 1 6 0 )" />
  </g>
</svg>