<?xml version="1.0" encoding="utf-8"?>
<svg version="1.1" xmlns:xlink="http://www.w3.org/1999/xlink" width="13px" height="13px" xmlns="http://www.w3.org/2000/svg">
  <g transform="matrix(1 0 0 1 -770 -56 )">
    <path d="M 12.5517241357422 12  L 0.67822569140625 12  C 0.798782752929687 12.1034482714844  0.896551728515625 12.2012078271484  1 12.3217734199219  L 1 0.448275864257812  C 0.896551728515625 0.200700055664063  0.695851901367187 0  0.448275864257812 0  C 0.200699827148438 0  0 0.200700055664063  0 0.448275864257812  L 0 12.3217734199219  C 0 12.6963800742187  0.303650864257812 13  0.67822569140625 13  L 12.5517241357422 13  C 12.7993001728516 13  13 12.7992999443359  13 12.5517241357422  C 13 12.3041483271484  12.7993001728516 12.1034482714844  12.5517241357422 12  Z M 10.9630210371094 1.36186094433594  L 10.9630210371094 10.9513959013672  C 10.9630210371094 11.1989717099609  11.1637208642578 11.3996717529297  11.4112969013672 11.3996717529297  C 11.6588729257812 11.3996717529297  11.8595727529297 11.1989717099609  11.8595727529297 10.9513959013672  L 11.8595727529297 1.36186094433594  C 11.8595727529297 1.11428513574219  11.6588729257812 0.913585080078125  11.4112969013672 0.913585080078125  C 11.1637208642578 0.913585080078125  10.9630210371094 1.11428513574219  10.9630210371094 1.36186094433594  Z M 4.22533172851562 4.09941440136719  L 4.22533172851562 10.9545977099609  C 4.22533172851562 11.2021737470703  4.42603155566406 11.4028735742187  4.67360758007813 11.4028735742187  C 4.9211836171875 11.4028735742187  5.12188344433594 11.2021737470703  5.12188344433594 10.9545977099609  L 5.12188344433594 4.09941440136719  C 5.12188344433594 3.85183836425781  4.9211836171875 3.65113853710938  4.67360758007813 3.65113853710938  C 4.42603155566406 3.65113853710938  4.22533172851562 3.85183836425781  4.22533172851562 4.09941440136719  Z M 2.95211844433594 10.9545977099609  L 2.95211844433594 4.09941440136719  C 2.95211844433594 3.85183836425781  2.7514186171875 3.65113853710938  2.50384258007812 3.65113853710938  C 2.25626655566406 3.65113853710938  2.05556672851562 3.85183836425781  2.05556672851562 4.09941440136719  L 2.05556672851562 10.9545977099609  C 2.05556672851562 11.2021737470703  2.25626655566406 11.4028735742187  2.50384258007812 11.4028735742187  C 2.7514186171875 11.4028735742187  2.95211844433594 11.2021737470703  2.95211844433594 10.9545977099609  Z M 8.56485948144531 6.385587  L 8.56485948144531 10.9523879257813  C 8.56485948144531 11.1999639628906  8.76555930859375 11.4006637900391  9.01313534570312 11.4006637900391  C 9.2607113828125 11.4006637900391  9.46141120996094 11.1999639628906  9.46141120996094 10.9523879257813  L 9.46141120996094 6.385587  C 9.46141120996094 6.13801096289062  9.2607113828125 5.93731113574219  9.01313534570312 5.93731113574219  C 8.76555930859375 5.93731113574219  8.56485948144531 6.13801096289062  8.56485948144531 6.385587  Z M 7.29164844433594 10.9523879257813  L 7.29164844433594 6.385587  C 7.29164844433594 6.13801096289062  7.0909486171875 5.93731113574219  6.84337258007812 5.93731113574219  C 6.59579655566406 5.93731113574219  6.39509672851563 6.13801096289062  6.39509672851563 6.385587  L 6.39509672851563 10.9523879257813  C 6.39509672851563 11.1999639628906  6.59579655566406 11.4006637900391  6.84337258007812 11.4006637900391  C 7.0909486171875 11.4006637900391  7.29164844433594 11.1999639628906  7.29164844433594 10.9523879257813  Z " fill-rule="nonzero" fill="#999999" stroke="none" transform="matrix(1 0 0 1 770 56 )" />
  </g>
</svg>