<?xml version="1.0" encoding="utf-8"?>
<svg version="1.1" xmlns:xlink="http://www.w3.org/1999/xlink" width="20px" height="6px" xmlns="http://www.w3.org/2000/svg">
  <g transform="matrix(1 0 0 1 -1720 -527 )">
    <path d="M 19.7313878676471 3.0111328125  C 19.7313878676471 4.59421875  18.4674862132353 5.8833984375  16.9154411764706 5.8833984375  L 3.05618106617647 5.8833984375  C 1.50413602941176 5.8833984375  0.240234375 4.59421875  0.240234375 3.0111328125  C 0.240234375 1.428046875  1.50413602941176 0.1388671875  3.05618106617647 0.1388671875  L 16.9154411764706 0.1388671875  C 18.4674862132353 0.1388671875  19.7313878676471 1.428046875  19.7313878676471 3.0111328125  Z M 16.9154411764706 1.169765625  L 3.05618106617647 1.169765625  C 2.06077665441176 1.169765625  1.25091911764706 1.9958203125  1.25091911764706 3.0111328125  C 1.25091911764706 4.0264453125  2.06077665441176 4.8525  3.05618106617647 4.8525  L 16.9154411764706 4.8525  C 17.9108455882353 4.8525  18.720703125 4.0264453125  18.720703125 3.0111328125  C 18.720703125 1.9958203125  17.9108455882353 1.169765625  16.9154411764706 1.169765625  Z " fill-rule="nonzero" fill="#076f55" stroke="none" transform="matrix(1 0 0 1 1720 527 )" />
  </g>
</svg>