<?xml version="1.0" encoding="utf-8"?>
<svg version="1.1" xmlns:xlink="http://www.w3.org/1999/xlink" width="80px" height="80px" xmlns="http://www.w3.org/2000/svg">
  <g transform="matrix(1 0 0 1 -235 -135 )">
    <path d="M 80 40  C 80 17.9086100067683  62.0913899932317 0  40 0  C 17.9086100067683 0  0 17.9086100067683  0 40  C 0 62.0913899932317  17.9086100067683 80  40 80  C 62.0913899932317 80  80 62.0913899932317  80 40  Z M 63.333359375 65  L 16.666640625 65  C 16.666640625 52.1133414548661  27.1133414548661 41.666640625  40 41.666640625  C 32.6361889534029 41.666640625  26.6666406252289 35.6970922968259  26.6666406252289 28.33328125  C 26.6666406252289 20.9694702031741  32.6361889534029 14.999921875  40.0000000002289 14.999921875  C 47.3638110470548 14.999921875  53.3333593752289 20.9694702031741  53.3333593752289 28.33328125  C 53.3333162279327 35.6971399120971  47.3637805372235 41.6666406251264  40 41.666640625  C 52.8866585451339 41.666640625  63.333359375 52.1133414548661  63.333359375 65  Z " fill-rule="nonzero" fill="#ffffff" stroke="none" fill-opacity="0.996078431372549" transform="matrix(1 0 0 1 235 135 )" />
  </g>
</svg>