<?xml version="1.0" encoding="utf-8"?>
<svg version="1.1" xmlns:xlink="http://www.w3.org/1999/xlink" width="4px" height="5px" xmlns="http://www.w3.org/2000/svg">
  <g transform="matrix(1 0 0 1 -706 -155 )">
    <path d="M 2.88626133203125 4.77516719140625  L 2.88786846484375 4.77516719140625  C 2.60447684297885 4.77580136615741  2.33587878002474 4.64873381349088  2.1566275 4.4292339453125  C 1.60836591138496 3.76648932537494  1.10846709330826 3.06518084266359  0.66079779296875 2.33073316015625  C 0.569980742548444 2.1817445070113  0.521938693172696 2.01062703537864  0.521938693172696 1.83614106054688  C 0.521938693172696 1.31132954290433  0.94738248821683 0.885885747860193  1.47219400585937 0.885885747860193  C 1.80361419704295 0.885885747860193  2.11109151653598 1.05855860622794  2.28359021875 1.3415489609375  C 2.68299503735996 1.99920593692618  3.13003367510193 2.62672518135991  3.62111829296875 3.21907035546875  C 3.95400303830646 3.62403052219543  3.8984250697668 4.22158337350078  3.4965662734375 4.5582055625  C 3.32332254892406 4.69710793845  3.10830778397548 4.77354506107046  2.88626133203125 4.77516719140625  Z " fill-rule="nonzero" fill="#17488a" stroke="none" transform="matrix(1 0 0 1 706 155 )" />
  </g>
</svg>