<?xml version="1.0" encoding="utf-8"?>
<svg version="1.1" xmlns:xlink="http://www.w3.org/1999/xlink" width="24px" height="22px" xmlns="http://www.w3.org/2000/svg">
  <g transform="matrix(1 0 0 1 -710 -137 )">
    <path d="M 4.7723491875 19.8622567929687  L 13.3909478554688 19.8622567929688  C 13.8186073503005 19.8719203467513  14.1602555101952 20.2213757271368  14.1602555101952 20.6491443886719  C 14.1602555101952 21.0769130502069  13.8186073503005 21.4263684305924  13.3909478554688 21.436031984375  L 4.7723491875 21.436031984375  C 4.76243804777977 21.436106938287  4.75252666006784 21.4361444156449  4.7426152369287 21.4361444156449  C 2.57112750829261 21.4361444156449  0.810788893178703 19.6758058005309  0.810788893178703 17.5043180718949  C 0.810788893178703 17.5029413288952  0.810789616285901 17.50156458599  1 17.50018784375  L 1 4.51463427734375  C 0.813004787109781 2.33228771886544  2.58276740931907 0.564319394636435  4.765115090574 0.564319394636435  C 4.76752645772917 0.564319394636435  4.76993782437997 0.564321600331463  4.7723491875 1  L 19.2123490195312 1  C 21.4221431015625 0.56432601171875  23.1899783671875 2.3349737421875  23.1899783671875 4.51463427734375  L 23.1899783671875 11.00781284375  C 23.1899783671875 11.4420660097301  22.8379466210582 11.7940977558594  22.4036934550781 11.7940977558594  C 21.9694402890981 11.7940977558594  21.6174085429687 11.4420660097301  21.6174085429687 11.00781284375  L 21.6174085429687 4.51463427734375  C 21.6174130042242 4.51275674473677  21.6174152348543 4.51087920749512  21.6174152348543 4.50900166958789  C 21.6174152348543 3.19980714714136  20.5561033783946 2.13849529068164  19.2469088559481 2.13849529068164  C 19.2448977244394 2.13849529068164  19.2428865937446 2.13849785003983  19.24087546875 2.13850296875  L 4.7723491875 2.13850296875  C 4.77114161788987 2.13850112328718  4.7699340470461 2.13850020055536  4.76872647602582 2.13850020055536  C 3.45953195357928 2.13850020055536  2.39822009711957 3.19981205701508  2.39822009711957 4.50900657946161  C 2.39822009711957 4.51088248073767  2.39822232386253 4.51275838135409  2.39822677734375 4.51463427734375  L 2.39822677734375 17.48572371875  C 2.39822166528656 17.4877335363593  2.39821910925487 17.4897433596563  2.39821910925487 17.491753183767  C 2.39821910925487 18.8009477062136  3.45953096571458 19.8622595626733  4.76872548816112 19.8622595626733  C 4.76993338846894 19.8622595626733  4.7711412886035 19.8622586394382  4.7723491875 19.8622567929687  Z " fill-rule="nonzero" fill="#17488a" stroke="none" transform="matrix(1 0 0 1 710 137 )" />
  </g>
</svg>