<?xml version="1.0" encoding="utf-8"?>
<svg version="1.1" xmlns:xlink="http://www.w3.org/1999/xlink" width="37px" height="29px" xmlns="http://www.w3.org/2000/svg">
  <g transform="matrix(1 0 0 1 -834 -131 )">
    <path d="M 4.50054253459676 23.8129111842105  C 4.83376736086019 22.1753015349635  7.06998697916667 19.5241228071418  12.5380859375 17.4810855263158  C 12.8391927083333 17.3697916665425  13.2045355904032 17.2664473684211  13.6421440970968 16.9921875  C 14.2764756941935 16.5986842105263  14.7662760416667 15.7838541665425  13.5859375 14.7861842105263  C 9.68359375 9.21751644736842  11.1048177083333 5.52097039473684  11.6949869791667 4.12582236842105  C 11.201171875 3.93503289473684  10.6350911458333 3.82373903496351  9.99273003459676 3.82373903496351  L 9.7919921875 3.82373903496351  C 6.05826822916667 3.82373903496351  5.06260850706991 7.18640350864772  4.99034288206991 9.07442434210526  C 4.94216579873657 13.5222039473684  7.68825954873657 15.2909813597733  7.68825954873657 15.2909813597733  C 7.68825954873657 15.2909813597733  7.86089409747315 15.5254934210526  7.86089409709676 16.2012061402267  C 7.86089409709676 16.3562225875951  7.76052517336019 16.8172971488744  7.58387586793009 16.9603892545102  C 6.04622395833333 18.1846217105263  0.927408854166667 19.4684758770688  0.570095486236572 22.1156798244372  C 0.381401909973144 22.878837719174  0.493815104166667 23.6737938594007  0.529947916666667 24.4131030702997  C 1.36903211793009 25.0490679827046  4.05088975706991 25.5896381578947  4.05088975706991 25.5896381578947  C 4.05088975706991 25.5896381578947  4.27170138913981 24.917900219174  4.50054253459676 23.8129111842105  Z M 36.2853732637634 24.3852796052632  C 36.3215060762634 23.6499451755628  36.4379340275269 22.8549890349635  36.2452256945699 22.0918311402267  C 35.8798828125 19.4486019736842  30.6245659724732 18.1687225875951  29.0547960070699 16.940515350753  C 28.8741319445699 16.8013980263158  28.7697482641398 16.3363486842105  28.7697482637634 16.1853070176681  C 28.7697482637634 15.5056195176681  28.9423828125 15.2750822368421  28.9423828125 15.2750822368421  C 28.9423828125 15.2750822368421  31.7567274304301 13.5102796052632  31.7045355904032 9.06647478082597  C 31.6282552083333 7.18242872819439  30.4398871529032 3.82373903533614  26.7824435762634 3.82373903496351  L 26.5736762154032 3.82373903496351  C 25.7867838541667 3.82373903496351  25.1203342016398 3.97080592105263  24.5582682291667 4.21326754398386  C 25.3411458333333 6.80879934210526  26.2805989583333 11.5666118421053  22.3260633679301 14.7583607454898  C 20.7723524304301 17.0478344297003  25.943359375 18.3952850875951  25.1404079862366 18.0375548244372  C 29.8216145833333 20.1203399120323  31.0782335070699 21.7182017541375  31.4235026041667 23.3677357454898  C 31.7085503470968 24.7469846488744  31.8731553820699 25.5896381578947  31.8731553820699 25.5896381578947  C 31.8731553820699 25.5896381578947  35.3780381945699 25.0609923244372  36.2853732637634 24.3852796052632  Z M 30.3555772570699 23.4154331139109  C 29.9099392362366 20.1322642541375  22.9122178820699 18.5423519736842  20.9851345487366 17.0160361842105  C 20.7643229166667 16.8411458334575  20.6358506945699 16.2648026315789  20.6358506945699 16.0740131578947  C 20.6358506945699 15.231359649247  20.8486328125 14.9412006578947  20.8486328125 14.9412006578947  C 20.8446180554301 14.9451754387207  24.3093532987366 13.088952850753  24.2411024304301 7.22615131578948  C 24.1487630208333 4.88500548233193  22.69140625 0.711485745489825  18.2029079862366 0.711485745489825  L 17.9459635416667 0.711485745489825  C 13.2486979166667 0.711485745489825  12.0001085070699 4.88500548233193  11.9077690970968 7.22615131578948  C 11.8435329858602 12.7471217105263  15.3002387150269 14.9412006578947  15.3002387154032 14.9412006578947  C 15.3002387157796 14.9412006578947  15.7177734375 15.4141995612793  15.7177734375 16.2568530702997  C 15.7177734375 16.4476425439839  15.3845486112366 16.8411458334575  15.1637369791667 17.0160361842105  C 13.2366536458333 18.5423519736842  6.29513888876343 20.0805921052632  5.84548611123657 23.3637609650365  C 5.49620225706991 24.7589089913523  3.43663194456991 26.9688870616519  10.2858072916667 27.8592379387207  C 12.1727430554301 28.1056743421053  14.7381727429301 28.2487664473684  18.1988932291667 28.2487664473684  C 34.0893012154032 28.2487664473684  30.8052300345968 25.200109649247  30.3555772570699 23.4154331139109  Z " fill-rule="nonzero" fill="#17488a" stroke="none" transform="matrix(1 0 0 1 834 131 )" />
  </g>
</svg>