<?xml version="1.0" encoding="utf-8"?>
<svg version="1.1" xmlns:xlink="http://www.w3.org/1999/xlink" width="7px" height="7px" xmlns="http://www.w3.org/2000/svg">
  <g transform="matrix(1 0 0 1 -724 -147 )">
    <path d="M 6.9243367890625 3.8656792421875  C 6.9243367890625 5.50052509375  5.51810419140624 6.83242823828125  3.8093306875 6.83242823828125  C 2.08569129296875 6.83242823828125  0.694726386718749 5.50052509375  0.694726386718749 3.8508133515625  C 0.679458730468752 2.2159675  2.085691328125 0.884064355468748  3.8093306875 0.884064355468748  C 5.53297004687499 0.884064355468748  6.9243367890625 2.2159675  6.9243367890625 3.8656792421875  Z M 5.412435859375 3.8656792421875  C 5.412435859375 3.048457234375  4.68641805859375 2.39757241796875  3.8093306875 2.39757241796875  C 2.91737742578125 2.39757241796875  2.20662731640626 3.048457234375  2.20662731640626 3.8656792421875  C 2.20662731640626 4.68290125  2.9326451171875 5.33378606640625  3.8093306875 5.33378606640625  C 4.6860162578125 5.33378606640625  5.412435859375 4.68290125  5.412435859375 3.8656792421875  Z " fill-rule="nonzero" fill="#17488a" stroke="none" transform="matrix(1 0 0 1 724 147 )" />
  </g>
</svg>