<?xml version="1.0" encoding="utf-8"?>
<svg version="1.1" xmlns:xlink="http://www.w3.org/1999/xlink" width="24px" height="22px" xmlns="http://www.w3.org/2000/svg">
  <g transform="matrix(1 0 0 1 -710 -137 )">
    <path d="M 22.398111993034 21.4183851739559  C 22.3958207078621 21.4183851739559  22.3935294347549 21.4183746588286  22.3912382460938 21.4183536289063  C 22.3889484830271 21.4183746214009  22.3866586357623 21.4183851178136  22.3843687764683 21.4183851178136  C 21.9705301679784 21.4183851178136  21.6350476905308 21.082902640366  21.6350476905308 20.6690640318761  C 21.6350476905308 20.6665088760618  21.635060760004 20.6639537369606  21.6350868984375 20.6613987148438  C 21.6350868984375 18.7091461015625  19.9415810859375 17.1197014882813  17.8699995820313 17.119701453125  C 15.798418078125 17.1197014179687  14.104912265625 18.7091460664062  14.104912265625 20.6613987148438  C 14.1050461830524 20.6672072755042  14.1051131484375 20.6730171867433  14.1051131484375 20.678827290944  C 14.1051131484375 21.0964381488186  13.7665726586558 21.4349786386003  13.3489618007812 21.4349786386003  C 12.9313509429067 21.4349786386003  12.592810453125 21.0964381488186  12.592810453125 20.678827290944  C 12.592810453125 20.6730171867433  12.5928774185101 20.6672072755042  12.5930113359375 20.6613987148438  C 12.5930113359375 17.8766564023437  14.9667319453125 15.6061934257812  17.8699995820313 15.6061934257812  C 20.77326721875 15.6061934257812  23.146987828125 17.8766563671875  23.146987828125 20.6613987148438  C 23.1470167946251 20.6640876753203  23.1470312781902 20.6667767723086  23.1470312781902 20.6694658887997  C 23.1470312781902 21.0830825888456  22.8117286930799 21.4183851739559  22.398111993034 21.4183851739559  Z M 16.480279180563 4.57935245765734  C 16.4779893212692 4.57935245765734  16.4756994740039 4.57934196124462  16.4734097109375 4.57932096875  C 16.471119947871 4.57934196124462  16.4688301006059 4.57935245765734  16.466540241312 4.57935245765734  C 16.0527016328221 4.57935245765734  15.7172191553745 4.24386998020977  15.7172191553745 3.83003137171984  C 15.7172191553745 3.82747621590559  15.7172322248477 3.82492107680431  15.7172583632813 3.8223660546875  L 15.7172583632813 1.43096708984375  C 15.7172583632813 1.0133562319692  16.0557988530629 0.674815742187498  16.4734097109375 0.674815742187498  C 16.891020568812 0.674815742187498  17.2295610585938 1.0133562319692  17.2295610585938 1.43096708984375  L 17.2295610585938 3.8223660546875  C 17.2295871970273 3.8249210768042  17.2296002665005 3.8274762159057  17.2296002665005 3.83003137171984  C 17.2296002665005 4.24386998020977  16.8941177890529 4.57935245765734  16.480279180563 4.57935245765734  Z M 8.1268166015625 3.8223660546875  C 8.12593551965776 4.23958514189419  7.78828417285181 4.57777500303527  7.37106701953125 4.57932096875  C 7.3687772564647 4.57934196124462  7.36648740919967 4.57935245765734  7.36419754990579 4.57935245765734  C 6.95035894141586 4.57935245765734  6.61487646396829 4.24386998020977  6.61487646396829 3.83003137171984  C 6.61487646396829 3.82747621590559  6.61488953344149 3.82492107680431  6.614915671875 3.8223660546875  L 6.614915671875 1.43096708984375  C 6.61478175444759 1.42515852918328  6.6147147890625 1.41934861794429  6.6147147890625 1.41353851374353  C 6.6147147890625 0.995927655868985  6.9532552788442 0.657387166087283  7.37086613671875 0.657387166087283  C 7.7884769945933 0.657387166087283  8.127017484375 0.995927655868985  8.127017484375 1.41353851374353  C 8.127017484375 1.41934861794429  8.12695051898991 1.42515852918328  8.1268166015625 1.43096708984375  L 8.1268166015625 3.8223660546875  Z M 23.12850590625 7  L 0.886325847656249 7  L 0.886325847656249 5.3925251796875  L 23.12850590625 5.3925251796875  L 23.12850590625 7  Z M 8.55230239453125 9.43363588671875  C 8.73390727734375 9.44890354296875  8.839575609375 9.53970601953125  8.87011095703125 9.72131090234375  L 8.87011095703125 13.5655490351563  C 8.97564535546875 15.2155286210938  8.23476167578125 16.30542584375  6.64745991796875 16.835240703125  C 6.40639147265625 16.895507796875  6.2388489140625 16.819973046875  6.117912890625 16.6078328164063  C 6.07251165234375 16.3960943515625  6.17858178515625 16.2598907070313  6.420453796875 16.1843558867188  C 7.64508151171875 15.8665473242188  8.2501632890625 15.0035222773438  8.21962794140625 13.5808166914062  L 8.21962794140625 9.72131090234375  C 8.21962794140625 9.55497367578125  8.32569807421875 9.44890354296875  8.55230239453125 9.43363588671875  Z M 4.33400640234375 9.87278223828125  C 4.34887229296874 9.6759096640625  4.43967473437499 9.56983956640625  4.6361455078125 9.55497367578125  L 6.6321922265625 9.55497367578125  C 6.783261796875 9.56983956640625  6.873260671875 9.6755078984375  6.8893319296875 9.87278223828125  C 6.8740642734375 10.0696548125  6.783261796875 10.1604572539062  6.6321922265625 10.1604572539062  L 5.87604087890625 10.1604572539062  L 5.87604087890625 12.3702513359375  L 6.46424790234375 12.3702513359375  C 6.61531747265625 12.3851172265625  6.70531634765625 12.4907855585937  6.7213875703125 12.6876580976563  C 6.7061199140625 12.884530671875  6.6153174375 12.9753331132813  6.46424790234375 12.9753331132813  L 5.87604087890625 12.9753331132813  L 5.87604087890625 15.1549936484375  C 5.9214421171875 15.1095924101562  6.02751221484375 15.0344594257813  6.20871533203125 14.9279875273438  C 6.30395569076595 14.8888789845015  6.39113670147933 14.8324837668926  6.465855 14.7616503007813  C 6.6169245703125 14.641116078125  6.76799410546875 14.641116078125  6.9194654765625 14.7917838476563  C 7.02513380859375 14.9581210742188  7.01026791796875 15.1095924101563  6.85879658203125 15.2457960898438  C 6.2842501171875 15.6998083320313  5.52850053515625 16.0493575742188  4.56061072265625 16.3052919101563  C 4.3488722578125 16.3205595664063  4.1990080546875 16.244623015625  4.137133828125 16.0481522421875  C 4.1222679375 15.89668090625  4.21266861328125 15.7757448828125  4.439674734375 15.6998083320312  C 4.83261631640625 15.609005890625  5.089755984375 15.5334711054688  5.22595962890625 15.4426686640625  L 5.22595962890625 12.9918061367187  L 4.69641263671875 12.9918061367187  C 4.49994186328125 12.9918061367187  4.39387173046875 12.9010036953125  4.39387173046875 12.7041311210937  C 4.39387173046875 12.507258546875  4.49994186328125 12.4015902148437  4.69641263671875 12.3863225585937  L 5.22555786328125 12.3863225585937  L 5.22555786328125 10.1604572539062  L 4.6361455078125 10.1604572539062  C 4.43967473437499 10.1604572539062  4.33400640234375 10.0696548125  4.33400640234375 9.87278223828125  Z M 9.09792064453125 9.93304933203125  C 9.11318832421875 9.75144442578125  9.233722546875 9.64550823828125  9.4595233125 9.61524076953125  L 11.6825761523437 9.61524076953125  C 11.8336457226563 9.63050842578125  11.9236445976562 9.7357749921875  11.9393140546875 9.93304933203125  C 11.9244481640625 10.12992190625  11.8336457226563 10.2207243476563  11.6825761523437 10.2207243476563  L 10.790221125 10.2207243476563  L 10.790221125 12.6876580976563  L 11.440302375 12.6876580976563  C 11.6219072578125 12.7029257539062  11.712709734375 12.8081923203125  11.74284328125 13.0058684609375  C 11.727977390625 13.2176069257813  11.6223090585937 13.3236770234375  11.440302375 13.3236770234375  L 10.790221125 13.3236770234375  L 10.790221125 16.0176168945313  L 11.772976828125 16.0176168945313  C 11.9545817109375 16.0176168945313  12.0453841875 16.1236870273438  12.075517734375 16.3354254570313  C 12.060250078125 16.5475656875  11.9549835117187 16.6685016757813  11.772976828125 16.6837693671875  L 9.03564465234375 16.6837693671875  C 8.838772078125 16.6685017109375  8.73310374609375 16.5475656875  8.73310374609375 16.3354254570313  C 8.73310374609375 16.1232852265625  8.838772078125 16.0176168945313  9.03564465234375 16.0176168945313  L 10.154202234375 16.0176168945313  L 10.154202234375 13.3385429140625  L 9.429389765625 13.3385429140625  C 9.2329189921875 13.3385429140625  9.126848859375 13.2328745820313  9.126848859375 13.0207343515625  C 9.126848859375 12.824263578125  9.2329189921875 12.7181934453125  9.429389765625 12.7029257890625  L 10.155005765625 12.7029257890625  L 10.155005765625 10.2207243476563  L 9.4595233125 10.2207243476563  C 9.24778484765625 10.2207243476563  9.126848859375 10.12992190625  9.09792064453125 9.93304933203125  Z M 7.4948155078125 9.6759096640625  C 7.69128628125 9.6759096640625  7.7973564140625 9.76671210546875  7.81222226953125 9.93304933203125  C 7.79735637890625 10.7048701367187  7.75195517578125 11.4316915039063  7.7065539375 12.1127098671875  C 7.65677227831154 12.7276570237466  7.57091118005518 13.3391490503161  7.44941426953125 13.9440264921875  C 7.358611828125 14.1561667226562  7.2224081484375 14.2622368554687  7.025937375 14.2317015078125  C 6.8294666015625 14.1863002695312  6.76879770703125 14.050096625  6.8294666015625 13.8078228125  C 6.9397581758771 13.258102591839  7.01557474466187 12.7020248789198  7.0564726875 12.1428434140625  C 7.1167398046875 11.56802909375  7.162007109375 10.841609515625  7.1922746015625 9.9635846796875  C 7.1922746015625 9.7968456875  7.298344734375 9.6911773203125  7.4948155078125 9.6759096640625  Z " fill-rule="nonzero" fill="#17488a" stroke="none" transform="matrix(1 0 0 1 710 137 )" />
  </g>
</svg>