<?xml version="1.0" encoding="utf-8"?>
<svg version="1.1" xmlns:xlink="http://www.w3.org/1999/xlink" width="10px" height="9px" xmlns="http://www.w3.org/2000/svg">
  <g transform="matrix(1 0 0 1 -713 -146 )">
    <path d="M 3.47911379296875 8.01805095312499  L 3.480720890625 8.018050953125  C 3.25411653515625 8.018050953125  3.08777930859375 7.9119808203125  2.98211101171875 7.68497469921875  L 2.9668433203125 7.63957349609375  C 2.90617442578125 7.35189848046875  3.05764576171875 7.124892359375  3.37505255859375 7.04935757421875  C 4.5402167109375 6.74641490234375  5.0838260625 5.94446055078125  5.06855840625 4.598495046875  L 5.06855840625 0.721310902343749  C 5.06855840625 0.600776679687499  5.11395964453125 0.327967554687501  5.53743650390625 0.28216455078125  L 5.5675700859375 0.28216455078125  C 5.83957564453125 0.312699898437501  5.99104698046875 0.464171234374998  6.03644818359375 0.706043210937498  C 6.11198296875 0.569839531249997  6.2630525390625 0.494304746093746  6.4595233125 0.464974765624998  L 8.72757558984375 0.464974765624998  C 8.86337746875 0.479840656249998  9.07511593359375 0.570643097656248  9.120517171875 0.918987007812497  L 9.120517171875 0.946709890624998  C 9.07511593359375 1.32518734765625  8.817976265625 1.3705885859375  8.71230793359375 1.3705885859375  L 7.97182604296875 1.3705885859375  L 7.97182604296875 3.5349814296875  L 8.50097126953125 3.5349814296875  C 8.74203971484375 3.56511497656249  8.8939128515625 3.73185400390625  8.9244481640625 3.988993671875  L 8.9244481640625 4.01912721875  C 8.87904692578125 4.4281400234375  8.5917737109375 4.4731394609375  8.48570361328125 4.4731394609375  L 7.9866918984375 4.4731394609375  L 7.9866918984375 6.8649402265625  L 8.81837806640625 6.8649402265625  C 8.9389122890625 6.8649402265625  9.2265873046875 6.91034146484375  9.2571226171875 7.31895243359375  L 9.2571226171875 7.349086015625  C 9.21172137890625 7.72756347265625  8.96984940234375 7.8183659140625  8.83364572265625 7.8336335703125  L 6.05131407421875 7.8336335703125  C 5.779308515625 7.80309822265625  5.6278371796875 7.62149333984375  5.6278371796875 7.33381832421875  C 5.6278371796875 7.03127741796875  5.79417440625 6.86494019140625  6.08144765625 6.8649402265625  L 7.04933743359375 6.8649402265625  L 7.04933743359375 4.49001425  L 6.429389765625 4.49001425  C 6.2329189921875 4.49001425  6.08144765625 4.39921180859375  6.02118052734375 4.24894580468749  L 6.02118052734375 4.5667543671875  C 6.14171475 6.27713496875  5.35583162109375 7.42743323046874  3.69085222265625 7.98751560546875  C 3.62135039321466 8.00412340728686  3.55047614015665 8.01434436698792  3.47911379296875 8.01805095312499  Z M 3.2541165703125 7.562431578125  L 3.2541165703125 7.56363691015625  C 3.32965135546875 7.69984058984375  3.435721453125 7.73037590234375  3.6020586796875 7.69984058984375  C 5.1288255 7.18556125390625  5.82470975390625 6.17307376953125  5.71863962109375 4.5820220234375  L 5.71863962109375 0.736578558593749  C 5.70377373046875 0.675909664062498  5.68850607421875 0.616044335937499  5.53743650390625 0.585107222656248  C 5.35583162109375 0.600374878906248  5.35583162109375 0.675909664062498  5.35583162109375 0.721310902343749  L 5.35583162109375 4.6113520390625  C 5.38596516796875 6.09432475390625  4.735883953125 7.01761689453125  3.435721453125 7.35069311328125  C 3.2541165703125 7.3960943515625  3.23884887890625 7.4712273359375  3.2541165703125 7.562431578125  Z M 6.03564465234375 7.56283334375  L 6.03644818359375 7.56363691015625  L 8.772976828125 7.56363691015625  C 8.81837806640625 7.56363691015625  8.9091805078125 7.53350336328125  8.9244481640625 7.36716613671875  C 8.9091805078125 7.20042714453125  8.83364572265625 7.20042714453125  8.788244484375 7.20042714453125  L 7.6540174453125 7.20042714453125  L 7.6540174453125 4.187071578125  L 8.4575789296875 4.187071578125  C 8.50298016796875 4.187071578125  8.57811315234375 4.187071578125  8.593782609375 4.02033255078125  C 8.578514953125 3.899798328125  8.51824782421875 3.85399532421875  8.4423112734375 3.85399532421875  L 7.63915158984375 3.85399532421875  L 7.63915158984375 1.0696548125  L 8.683781484375 1.0696548125  C 8.72918272265625 1.0696548125  8.77418216015625 1.0696548125  8.7894498515625 0.933049332031253  C 8.7741821953125 0.796845652343752  8.71391506640625 0.766712105468752  8.66891562890625 0.766712105468752  L 6.4595233125 0.766712105468752  C 6.3084537421875 0.781979761718752  6.2630525390625 0.842246890625002  6.2477848828125 0.933049332031253  C 6.2630525390625 1.0089858828125  6.29318612109375 1.06965477734375  6.4595233125 1.0696548125  L 7.30647713671875 1.0696548125  L 7.30647713671875 3.839531234375  L 6.429389765625 3.839531234375  C 6.30885554296875 3.854798890625  6.2783201953125 3.90020012890625  6.2783201953125 4.0062702265625  C 6.2783201953125 4.157339796875  6.3385872890625 4.172607453125  6.429389765625 4.172607453125  L 7.30647713671875 4.172607453125  L 7.30647713671875 7.16948999609375  L 6.03564465234375 7.16948999609375  C 5.9448422109375 7.16948999609375  5.88417331640625 7.18475765234375  5.88417328125 7.33582722265625  C 5.88417328125 7.51743210546875  5.94484217578125 7.547967453125  6.03564465234375 7.56283334375  Z M 6.4595233125 1.37219568359375  C 6.24778484765625 1.37219568359375  6.09792064453125 1.3115267890625  6.02118052734375 1.17532314453125  L 6.02118052734375 3.80899588671875  C 6.08144762109375 3.65752455078125  6.21765130078125 3.56792744140625  6.414523875 3.55185621875  L 7.00393623046875 3.55185621875  L 7.00393623046875 1.37219568359375  L 6.4595233125 1.37219568359375  Z M 1.55980719140625 7.48689679296875  L 1.51520951953125 7.48689679296875  C 1.27414107421875 7.48689679296875  1.091732625 7.3663625703125  1.0009301484375 7.125294125  L 1.0009301484375 7.09395524609375  C 0.970796601562499 6.94248391015625  1.03146549609375 6.7154777890625  1.39427349609375 6.579274109375  L 1.424407078125 6.579274109375  C 1.65236485563764 6.53668315690896  1.87532584940253 6.47071039527888  2.089755984375 6.38240153515625  L 2.089755984375 4.142072140625  L 1.71168029296875 4.142072140625  C 1.439674734375 4.142072140625  1.2580698515625 3.9753331484375  1.2580698515625 3.7029257890625  C 1.2580698515625 3.4305184296875  1.4095411875 3.26418120312501  1.68154674609375 3.23364585546875  L 2.07448829296875 3.23364585546875  L 2.07448829296875 1.3115267890625  L 1.6361455078125 1.3115267890625  C 1.36413994921875 1.3115267890625  1.18253506640625 1.1451895625  1.18253506640625 0.872782238281253  C 1.18253506640625 0.600374914062506  1.33400640234375 0.433635886718754  1.6060119609375 0.403502339843755  L 3.64745991796875 0.403502339843755  C 3.783261796875 0.418769996093754  3.99500026171875 0.509572472656252  4.04040146484375 0.857514582031254  L 4.04040146484375 0.872782238281253  C 4.07053501171875 0.675909664062502  4.22160458203125 0.554973675781252  4.463878359375 0.524438328125004  L 4.47874425 0.524438328125004  C 4.751151609375 0.524438328125004  4.93235469140625 0.660642007812502  4.9628900390625 0.918183441406253  L 4.9628900390625 0.946709890625002  C 4.9476223828125 1.7185306953125  4.90222114453125 2.4453520625  4.85681994140625 3.14123628125  C 4.79655284765625 3.85278995703125  4.70575037109375 4.47313942578126  4.5848143828125 4.9894276953125  L 4.5695467265625 5.01996304296875  C 4.46387839453125 5.29237040234375  4.2521399296875 5.428574046875  3.9797325703125 5.398038734375  L 3.9648666796875 5.398038734375  C 3.84841642318604 5.3790375910245  3.74470828054814 5.31347662758177  3.67759346484375 5.21643381640625  C 3.6169245703125 5.110765484375  3.6020586796875 4.97536537109375  3.64745991796875 4.792956921875  C 3.70772701171875 4.5205495625  3.75312825 4.23287458203125  3.798529453125 3.91506601953125  C 3.7342645592261 4.05626259351104  3.59202122520862 4.1455597983357  3.43692678515625 4.142072140625  L 2.99697690234375 4.142072140625  L 2.99697690234375 5.8825862890625  C 3.02751225 5.8673186328125  3.057645796875 5.83718505078125  3.08777934375 5.82191739453125  C 3.2541165703125 5.731114953125  3.31438369921875 5.701383171875  3.3288477890625 5.68571375  C 3.55585391015625 5.5041088671875  3.797725921875 5.5193765234375  3.9941966953125 5.715847296875  L 4.0094643515625 5.746382609375  C 4.160533921875 5.97338873046875  4.12999857421875 6.2156625078125  3.91866191015625 6.39726742578125  C 3.32938348828125 6.86654732421875  2.54309858203125 7.22975711328125  1.55980719140625 7.48689679296875  Z M 1.50034362890625 6.86654732421875  C 1.3034710546875 6.92681441796875  1.2886051640625 7.00275100390625  1.2886051640625 7.03288455078125  C 1.3187387109375 7.1084193359375  1.37900583984375 7.18435588671875  1.54534306640625 7.16908823046875  C 2.48309933203125 6.9119485625  3.22398298828125 6.57887230859375  3.767994140625 6.13972595703125  C 3.85879658203125 6.064191171875  3.8740642734375 6.00352227734375  3.81379714453125 5.9127198359375  C 3.70772701171875 5.82191739453125  3.64745991796875 5.83718505078125  3.57272869921875 5.89745217968751  C 3.5273274609375 5.94325518359375  3.42165912890625 6.0035223125  3.28545544921875 6.07905706250001  C 3.18579046718632 6.13878951319398  3.08985520016192 6.20453536766819  2.998182234375 6.27592963671875  L 2.74104256640625 6.53347110546875  L 2.74104256640625 3.839531234375  L 3.48152445703125 3.839531234375  C 3.5269256953125 3.839531234375  3.5723268984375 3.839531234375  3.58759458984375 3.7033275546875  C 3.57232693359375 3.567123875  3.5120598046875 3.536990328125  3.4670603671875 3.536990328125  L 2.74104256640625 3.536990328125  L 2.74104256640625 1.00898591796875  L 3.648263484375 1.00898591796875  C 3.693262921875 1.00898591796875  3.73866416015625 1.00898591796875  3.75393181640625 0.872782238281253  C 3.73866416015625 0.736578558593756  3.67839703125 0.706043246093753  3.63339759375 0.706043210937505  L 1.65261853125 0.706043210937505  C 1.53208430859375 0.721310867187505  1.5015489609375 0.766712105468752  1.5015489609375 0.872782238281253  C 1.5015489609375 0.963584679687504  1.5164148515625 1.00898591796875  1.65261853125 1.00898591796875  L 2.39350222265625 1.00898591796875  L 2.39350222265625 3.52132087109376  L 1.72694794921875 3.52132087109376  C 1.6064137265625 3.53658852734375  1.57587837890625 3.581989765625  1.5758784140625 3.68765809765625  C 1.5758784140625 3.77886233984376  1.5907443046875 3.82426354296875  1.72694794921875 3.82426354296875  L 2.40716274609375 3.82426354296875  L 2.40716274609375 6.54833699609375  L 2.33162799609375 6.59414  C 2.18055842578125 6.68494244140625  1.9085528671875 6.7757448828125  1.50034362890625 6.86654732421875  Z M 4.05566915625 5.095497828125  C 4.14606983203125 5.110765484375  4.2368722734375 5.080230171875  4.3124070234375 4.9138929453125  C 4.43447772938176 4.31925310968073  4.52034880314715 3.71775313481513  4.5695467265625 3.1127098671875  C 4.61494796484375 2.43169150390625  4.64508151171875 1.70647726953125  4.66034916796875 0.948317023437497  C 4.64508151171875 0.888049929687497  4.63021562109375 0.842246890624999  4.49401194140625 0.827782800781247  C 4.34294237109375 0.842648691406247  4.34294237109375 0.918585242187497  4.34294237109375 0.963986445312496  C 4.32767471484375 1.84187734765625  4.2822734765625 2.58356460546875  4.20673869140625 3.15851287109375  C 4.16597471193799 3.72275952082939  4.09015967655623 4.28392496115968  3.9797325703125 4.83875992578125  C 3.95332234719919 4.9008373110242  3.94809778914852 4.96988618182372  3.9648666796875 5.03523069921874  C 3.9797325703125 5.06576604687499  4.01026791796875 5.08063193749999  4.05566915625 5.09589959374999  Z M 3.04237810546875 1.2962591328125  L 3.04237810546875 3.23364585546875  L 3.49598858203125 3.23364585546875  C 3.6165228046875 3.24891351171875  3.81379714453125 3.324448296875  3.87406423828125 3.59725745703125  L 3.9194654765625 3.1428434140625  C 3.97973259375 2.56802909375  4.0251338203125 1.841609515625  4.05566915625 0.9635846796875  L 4.05566915625 0.918183441406249  C 3.99500026171875 1.26612555078125  3.75312825 1.2962591328125  3.64745991796875 1.2962591328125  L 3.04237810546875 1.2962591328125  Z " fill-rule="nonzero" fill="#17488a" stroke="none" transform="matrix(1 0 0 1 713 146 )" />
  </g>
</svg>