<?xml version="1.0" encoding="utf-8"?>
<svg version="1.1" xmlns:xlink="http://www.w3.org/1999/xlink" width="36px" height="36px" xmlns="http://www.w3.org/2000/svg">
  <g transform="matrix(1 0 0 1 -704 -130 )">
    <path d="M 17.9959651523438 35.999956040271  C 14.2837684794894 36.0081931584702  10.6613922287325 34.8586448734688  7.63323626953125 32.7113806989652  C 7.38094929260458 32.533480176955  7.23088651454208 32.2440438305828  7.23088651454208 31.9353412003542  C 7.23088651454208 31.4109053448946  7.65602577704742 30.9857660842202  8.18046163476562 30.9857660842202  C 8.37640564551751 30.9857660842202  8.56755191508034 31.0463822179618  8.727687 31.1593017017433  C 11.4372997522225 33.0784891583415  14.6775484113934 34.1057686082278  17.9979740507812 34.098327802367  C 26.866480359375 34.098327802367  34.08406959375 26.8735065366072  34.08406959375 17.9961611060894  C 34.08406959375 9.11881567557162  26.8644714257812 1.89399440981186  17.9959651523438 1.89399440981186  C 9.12745887890625 1.89399440981186  1.91388740625 9.12323523805258  1.91388740625 18.0001789029471  C 1.91224467694445 19.5323835786889  2.12994099290844 21.0569342659507  2.560352625 22.5274442779807  C 2.58261780440677 22.6089993691542  2.59389976277675 22.6931610625255  2.59389976277675 22.7777008230294  C 2.59389976277675 23.3024881176021  2.16847560257836 23.7279122759683  1.6436883057455 23.7279122759683  C 1.22850149800552 23.7279122759683  0.861387444368269 23.4583529050013  0.73707162890625 23.0622144670839  C 0.258312507744528 21.4174162084881  0.0161538010078256 19.7128354001105  0.0178840898437501 17.9997771373238  C 0.0178840898437501 8.07338218398024  8.0832306796875 0  17.9999829492188 0  C 27.91673521875 0  35.9816800429687 8.07338218398024  35.9816800078125 17.9997771373238  C 35.9816799726563 27.9261720906675  27.9127173867188 35.9995542746477  17.9959651523438 35.9995542746477  Z " fill-rule="nonzero" fill="#17488a" stroke="none" transform="matrix(1 0 0 1 704 130 )" />
  </g>
</svg>