<?xml version="1.0" encoding="utf-8"?>
<svg version="1.1" xmlns:xlink="http://www.w3.org/1999/xlink" width="103px" height="40px" xmlns="http://www.w3.org/2000/svg">
  <g transform="matrix(1 0 0 1 -181 -1280 )">
    <path d="M 181.5 1285  A 4.5 4.5 0 0 1 186 1280.5 L 279 1280.5  A 4.5 4.5 0 0 1 283.5 1285 L 283.5 1315  A 4.5 4.5 0 0 1 279 1319.5 L 186 1319.5  A 4.5 4.5 0 0 1 181.5 1315 L 181.5 1285  Z " fill-rule="nonzero" fill="#ffffff" stroke="none" />
    <path d="M 181.5 1285  A 4.5 4.5 0 0 1 186 1280.5 L 279 1280.5  A 4.5 4.5 0 0 1 283.5 1285 L 283.5 1315  A 4.5 4.5 0 0 1 279 1319.5 L 186 1319.5  A 4.5 4.5 0 0 1 181.5 1315 L 181.5 1285  Z " stroke-width="1" stroke="#e4e4e4" fill="none" />
  </g>
</svg>