<?xml version="1.0" encoding="utf-8"?>
<svg version="1.1" xmlns:xlink="http://www.w3.org/1999/xlink" width="103px" height="40px" xmlns="http://www.w3.org/2000/svg">
  <g transform="matrix(1 0 0 1 -181 -1280 )">
    <path d="M 182 1285  A 4 4 0 0 1 186 1281 L 279 1281  A 4 4 0 0 1 283 1285 L 283 1315  A 4 4 0 0 1 279 1319 L 186 1319  A 4 4 0 0 1 182 1315 L 182 1285  Z " fill-rule="nonzero" fill="#f0f7ff" stroke="none" />
    <path d="M 181.5 1285  A 4.5 4.5 0 0 1 186 1280.5 L 279 1280.5  A 4.5 4.5 0 0 1 283.5 1285 L 283.5 1315  A 4.5 4.5 0 0 1 279 1319.5 L 186 1319.5  A 4.5 4.5 0 0 1 181.5 1315 L 181.5 1285  Z " stroke-width="1" stroke="#7abbff" fill="none" stroke-opacity="0.996078431372549" />
  </g>
</svg>