<?xml version="1.0" encoding="utf-8"?>
<svg version="1.1" xmlns:xlink="http://www.w3.org/1999/xlink" width="14px" height="13px" xmlns="http://www.w3.org/2000/svg">
  <g transform="matrix(1 0 0 1 -680 -2083 )">
    <path d="M 10.1837931034483 12.5514197530864  C 10.1837931034483 12.7696913580247  10.0059770114943 12.947037037037  9.78712643678161 12.947037037037  L 4.1967816091954 12.947037037037  C 3.97793103448276 12.947037037037  3.80091954022989 12.7704938271605  3.80091954022989 12.5522222222222  L 3.80091954022989 7.37067901234568  L 0.469885057471265 7.37067901234568  C 0.309770114942529 7.37067901234568  0.164942528735633 7.27438271604938  0.103793103448277 7.12672839506173  C 0.0418390804597701 6.97987654320988  0.0764367816091955 6.80895061728395  0.189885057471264 6.69660493827161  L 6.7119540229885 0.190987654320988  C 6.86080459770115 0.0425308641975312  7.12310344827586 0.0425308641975312  7.2719540229885 0.190987654320988  L 13.7368965517241 6.63802469135802  C 13.8511494252874 6.70783950617284  13.9267816091954 6.83302469135803  13.9267816091954 6.97586419753086  C 13.9267816091954 7.19734567901235  13.7457471264368 7.36104938271605  13.5228735632184 7.37067901234568  C 13.5204597701149 7.37067901234568  13.5180459770115 7.37067901234568  13.5148275862069 7.37067901234568  L 10.1837931034483 7.37067901234568  L 10.1837931034483 12.5514197530864  Z M 4.59264367816092 6.97586419753086  L 4.59264367816092 12.1566049382716  L 9.39126436781609 12.1566049382716  L 9.39126436781609 6.97586419753086  C 9.39126436781609 6.75759259259259  9.56827586206897 6.58104938271605  9.78712643678161 6.58104938271605  L 12.5581609195402 6.58104938271605  L 6.99195402298851 1.02876543209877  L 1.42574712643678 6.58104938271605  L 4.1967816091954 6.58104938271605  C 4.41563218390805 6.58104938271605  4.59264367816092 6.75759259259259  4.59264367816092 6.97586419753086  Z " fill-rule="nonzero" fill="#ffffff" stroke="none" transform="matrix(1 0 0 1 680 2083 )" />
  </g>
</svg>