<?xml version="1.0" encoding="utf-8"?>
<svg version="1.1" xmlns:xlink="http://www.w3.org/1999/xlink" width="15px" height="15px" xmlns="http://www.w3.org/2000/svg">
  <g transform="matrix(1 0 0 1 -800 -2083 )">
    <path d="M 15 1.56250000488281  C 15 0.687499995117188  14.3125000048828 0  13.4374999951172 0  L 1.56250000488281 0  C 0.687499995117188 0  0 0.687499995117188  0 1.56250000488281  L 0 13.4374999951172  C 0 14.3125000048828  0.687499995117188 15  1.56250000488281 15  L 13.4374999951172 15  C 14.3124999902344 15  15 14.3125000048828  15 13.4374999951172  L 15 1.56250000488281  Z M 3.62500000488281 5.31250000488281  L 3.62500000488281 1.24999999511719  L 11.3749999951172 1.24999999511719  L 11.3749999951172 5.31250000488281  C 11.3749999951172 5.56250000976562  11.1874999951172 5.75000000976562  10.9375000048828 5.74999999511719  L 4.06249999511719 5.74999999511719  C 3.81249999023438 5.74999999511719  3.62499999023438 5.56249999511719  3.62500000488281 5.31250000488281  Z M 13.7500000048828 1.56250000488281  L 13.7500000048828 13.4374999951172  C 13.7500000048828 13.6249999951172  13.6250000097656 13.7499999902344  13.4374999951172 13.7500000048828  L 1.56250000488281 13.7500000048828  C 1.37500000488281 13.7500000048828  1.25000000976562 13.6250000097656  1.24999999511719 13.4374999951172  L 1.24999999511719 1.56250000488281  C 1.24999999511719 1.37500000488281  1.37499999023437 1.25000000976563  1.56250000488281 1.24999999511719  L 2.625 1.24999999511719  L 2.625 5.31250000488281  C 2.625 6.12500000976563  3.25000000488281 6.75  4.06249999511719 6.75  L 10.9375000048828 6.75  C 11.7500000097656 6.75  12.375 6.12499999511719  12.375 5.31250000488281  L 12.375 1.24999999511719  L 13.4374999951172 1.24999999511719  C 13.6249999951172 1.24999999511719  13.7499999902344 1.37499999023438  13.7500000048828 1.56250000488281  Z " fill-rule="nonzero" fill="#ffffff" stroke="none" transform="matrix(1 0 0 1 800 2083 )" />
  </g>
</svg>